<svg width="80" height="80" viewBox="0 0 80 80" fill="none" xmlns="http://www.w3.org/2000/svg">
<g clip-path="url(#clip0)">
<path d="M8.63464 4.49402C6.74011 4.49402 5.19897 6.03577 5.19897 7.92969C5.19897 9.82422 6.74011 11.366 8.63464 11.366C10.5292 11.366 12.0709 9.82422 12.0709 7.92969C12.0709 6.03577 10.5292 4.49402 8.63464 4.49402ZM8.63464 9.02405C8.03162 9.02405 7.54028 8.53333 7.54028 7.92969C7.54028 7.32666 8.03162 6.83594 8.63464 6.83594C9.23828 6.83594 9.729 7.32666 9.729 7.92969C9.729 8.53333 9.23828 9.02405 8.63464 9.02405Z" fill="#793F5C"/>
<path d="M17.3828 4.49402C15.4883 4.49402 13.9465 6.03577 13.9465 7.92969C13.9465 9.82422 15.4883 11.366 17.3828 11.366C19.2773 11.366 20.8185 9.82422 20.8185 7.92969C20.8185 6.03577 19.2773 4.49402 17.3828 4.49402ZM17.3828 9.02405C16.7792 9.02405 16.2885 8.53333 16.2885 7.92969C16.2885 7.32666 16.7792 6.83594 17.3828 6.83594C17.9858 6.83594 18.4772 7.32666 18.4772 7.92969C18.4772 8.53333 17.9858 9.02405 17.3828 9.02405Z" fill="#793F5C"/>
<path d="M26.1304 4.49402C24.2358 4.49402 22.6947 6.03577 22.6947 7.92969C22.6947 9.82422 24.2358 11.366 26.1304 11.366C28.0249 11.366 29.5667 9.82422 29.5667 7.92969C29.5667 6.03577 28.0249 4.49402 26.1304 4.49402ZM26.1304 9.02405C25.5273 9.02405 25.036 8.53333 25.036 7.92969C25.036 7.32666 25.5273 6.83594 26.1304 6.83594C26.734 6.83594 27.2247 7.32666 27.2247 7.92969C27.2247 8.53333 26.734 9.02405 26.1304 9.02405Z" fill="#793F5C"/>
<path d="M78.7401 23.0975C79.387 23.0975 79.9113 22.5732 79.9113 21.9262L79.9998 5.15258C79.9998 2.3114 77.6884 0 74.8473 0H5.15319C2.31201 0 0 2.31201 0 5.15319V61.8041C0 64.3791 1.8988 66.519 4.3695 66.8974C4.62523 66.9371 4.88707 66.9573 5.15319 66.9573H27.9351V71.1565H24.4C22.0422 71.1565 20.1233 73.0748 20.1233 75.4326V77.9625C20.1233 79.0385 20.9985 79.9138 22.0745 79.9138H27.658C28.3044 79.9138 28.8287 79.3895 28.8287 78.7425C28.8287 78.0962 28.3044 77.5719 27.658 77.5719H22.4652V75.4326C22.4652 74.3657 23.3331 73.4978 24.4 73.4978H55.5114C56.5783 73.4978 57.4462 74.3657 57.4462 75.4326V77.5719H34.9267C34.2803 77.5719 33.756 78.0962 33.756 78.7425C33.756 79.3895 34.2803 79.9138 34.9267 79.9138H57.8362C58.9122 79.9138 59.7875 79.0385 59.7875 77.9625V75.4326C59.7875 73.0748 57.8691 71.1565 55.5108 71.1565H51.9756V66.9573H74.7581C75.0243 66.9573 75.2861 66.9371 75.5412 66.8974C78.0125 66.519 79.9107 64.3791 79.9107 61.8041V29.1857C79.9107 28.5388 79.387 28.0145 78.7401 28.0145C78.0937 28.0145 77.5694 28.5388 77.5694 29.1857V55.0213H40.9704V15.9265H77.5694V21.9262C77.5694 22.5732 78.0937 23.0975 78.7401 23.0975ZM2.42797 15.9265H38.6285V54.937H2.42797V15.9265ZM49.6343 71.1565H30.277V66.9573H49.6343V71.1565ZM77.5694 57.3632V61.8041C77.5694 63.2573 76.461 64.4567 75.045 64.6013C74.9504 64.6105 74.8552 64.6153 74.7581 64.6153H5.15319C5.05614 64.6153 4.96032 64.6105 4.86632 64.6013C3.45031 64.4567 2.34191 63.2573 2.34191 61.8041V57.3632H77.5694ZM39.7997 13.5846H2.42797V5.15258C2.42797 3.6029 3.68896 2.34191 5.23925 2.34191H74.7581C76.3084 2.34191 77.5694 3.6029 77.5694 5.15319V13.5846H39.7997Z" fill="#793F5C"/>
<path d="M7.3291 20.5927H13.2611C13.9075 20.5927 14.4318 20.069 14.4318 19.422C14.4318 18.7756 13.9075 18.2513 13.2611 18.2513H7.3291C6.68213 18.2513 6.15784 18.7756 6.15784 19.422C6.15784 20.069 6.68213 20.5927 7.3291 20.5927Z" fill="#793F5C"/>
<path d="M17.3199 20.5927H20.13C20.7764 20.5927 21.3007 20.069 21.3007 19.422C21.3007 18.7756 20.7764 18.2513 20.13 18.2513H17.3199C16.673 18.2513 16.1493 18.7756 16.1493 19.422C16.1493 20.069 16.673 20.5927 17.3199 20.5927Z" fill="#793F5C"/>
<path d="M16.2268 22.384H12.3242C11.6779 22.384 11.1536 22.9083 11.1536 23.5553C11.1536 24.2017 11.6779 24.726 12.3242 24.726H16.2268C16.8738 24.726 17.3981 24.2017 17.3981 23.5553C17.3981 22.9083 16.8738 22.384 16.2268 22.384Z" fill="#793F5C"/>
<path d="M34.6478 26.665H30.7452C30.0989 26.665 29.5746 27.1893 29.5746 27.8357C29.5746 28.4821 30.0989 29.0063 30.7452 29.0063H34.6478C35.2948 29.0063 35.8185 28.4821 35.8185 27.8357C35.8185 27.1893 35.2948 26.665 34.6478 26.665Z" fill="#793F5C"/>
<path d="M18.6469 23.5553C18.6469 24.2017 19.1711 24.726 19.8175 24.726H29.184C29.8309 24.726 30.3552 24.2017 30.3552 23.5553C30.3552 22.9083 29.8309 22.384 29.184 22.384H19.8175C19.1711 22.384 18.6469 22.9083 18.6469 23.5553Z" fill="#793F5C"/>
<path d="M14.8999 27.8357C14.8999 28.4821 15.4242 29.0063 16.0712 29.0063H18.1006C18.7469 29.0063 19.2712 28.4821 19.2712 27.8357C19.2712 27.1893 18.7469 26.665 18.1006 26.665H16.0712C15.4242 26.665 14.8999 27.1893 14.8999 27.8357Z" fill="#793F5C"/>
<path d="M27.1545 29.0063C27.8015 29.0063 28.3258 28.4821 28.3258 27.8357C28.3258 27.1893 27.8015 26.665 27.1545 26.665H21.535C20.8881 26.665 20.3638 27.1893 20.3638 27.8357C20.3638 28.4821 20.8881 29.0063 21.535 29.0063H27.1545Z" fill="#793F5C"/>
<path d="M14.4318 43.0109C14.4318 42.3639 13.9075 41.8402 13.2611 41.8402H7.3291C6.68213 41.8402 6.15784 42.3639 6.15784 43.0109C6.15784 43.6572 6.68213 44.1815 7.3291 44.1815H13.2611C13.9075 44.1815 14.4318 43.6572 14.4318 43.0109Z" fill="#793F5C"/>
<path d="M17.3199 41.8402C16.673 41.8402 16.1493 42.3639 16.1493 43.0109C16.1493 43.6572 16.673 44.1815 17.3199 44.1815H20.13C20.7764 44.1815 21.3007 43.6572 21.3007 43.0109C21.3007 42.3639 20.7764 41.8402 20.13 41.8402H17.3199Z" fill="#793F5C"/>
<path d="M17.3981 47.1436C17.3981 46.4972 16.8738 45.9729 16.2268 45.9729H12.3242C11.6779 45.9729 11.1536 46.4972 11.1536 47.1436C11.1536 47.7905 11.6779 48.3148 12.3242 48.3148H16.2268C16.8738 48.3148 17.3981 47.7905 17.3981 47.1436Z" fill="#793F5C"/>
<path d="M18.1006 50.2539H16.0712C15.4242 50.2539 14.8999 50.7776 14.8999 51.4246C14.8999 52.0709 15.4242 52.5952 16.0712 52.5952H18.1006C18.7469 52.5952 19.2712 52.0709 19.2712 51.4246C19.2712 50.7776 18.7469 50.2539 18.1006 50.2539Z" fill="#793F5C"/>
<path d="M34.6478 50.2539H30.7452C30.0989 50.2539 29.5746 50.7776 29.5746 51.4246C29.5746 52.0709 30.0989 52.5952 30.7452 52.5952H34.6478C35.2948 52.5952 35.8185 52.0709 35.8185 51.4246C35.8185 50.7776 35.2948 50.2539 34.6478 50.2539Z" fill="#793F5C"/>
<path d="M30.3552 47.1436C30.3552 46.4972 29.8309 45.9729 29.184 45.9729H19.8175C19.1711 45.9729 18.6469 46.4972 18.6469 47.1436C18.6469 47.7905 19.1711 48.3148 19.8175 48.3148H29.184C29.8309 48.3148 30.3552 47.7905 30.3552 47.1436Z" fill="#793F5C"/>
<path d="M27.1545 50.2539H21.535C20.8881 50.2539 20.3638 50.7776 20.3638 51.4246C20.3638 52.0709 20.8881 52.5952 21.535 52.5952H27.1545C27.8015 52.5952 28.3258 52.0709 28.3258 51.4246C28.3258 50.7776 27.8015 50.2539 27.1545 50.2539Z" fill="#793F5C"/>
<path d="M7.3291 34.3713H10.6073C11.2537 34.3713 11.778 33.847 11.778 33.2007C11.778 32.5537 11.2537 32.03 10.6073 32.03H7.3291C6.68213 32.03 6.15784 32.5537 6.15784 33.2007C6.15784 33.847 6.68213 34.3713 7.3291 34.3713Z" fill="#793F5C"/>
<path d="M27.0764 33.2007C27.0764 32.5537 26.5527 32.03 25.9058 32.03H13.8855C13.2391 32.03 12.7148 32.5537 12.7148 33.2007C12.7148 33.847 13.2391 34.3713 13.8855 34.3713H25.9058C26.5527 34.3713 27.0764 33.847 27.0764 33.2007Z" fill="#793F5C"/>
<path d="M24.8914 37.3334C24.8914 36.687 24.3671 36.1627 23.7201 36.1627H12.3242C11.6779 36.1627 11.1536 36.687 11.1536 37.3334C11.1536 37.9803 11.6779 38.5046 12.3242 38.5046H23.7201C24.3671 38.5046 24.8914 37.9803 24.8914 37.3334Z" fill="#793F5C"/>
<path d="M26.9989 38.5046H29.184C29.8309 38.5046 30.3552 37.9803 30.3552 37.3334C30.3552 36.687 29.8309 36.1627 29.184 36.1627H26.9989C26.3519 36.1627 25.8276 36.687 25.8276 37.3334C25.8276 37.9803 26.3519 38.5046 26.9989 38.5046Z" fill="#793F5C"/>
<path d="M53.5962 45.2582H46.1035C45.4565 45.2582 44.9323 45.7825 44.9323 46.4288C44.9323 47.0758 45.4565 47.5995 46.1035 47.5995H53.5962C54.2432 47.5995 54.7675 47.0758 54.7675 46.4288C54.7675 45.7825 54.2432 45.2582 53.5962 45.2582Z" fill="#793F5C"/>
<path d="M72.6416 45.2582H57.8113C57.1649 45.2582 56.6406 45.7825 56.6406 46.4288C56.6406 47.0758 57.1649 47.5995 57.8113 47.5995H72.6416C73.2886 47.5995 73.8129 47.0758 73.8129 46.4288C73.8129 45.7825 73.2886 45.2582 72.6416 45.2582Z" fill="#793F5C"/>
<path d="M53.5962 49.7852H46.1035C45.4565 49.7852 44.9323 50.3094 44.9323 50.9564C44.9323 51.6028 45.4565 52.1271 46.1035 52.1271H53.5962C54.2432 52.1271 54.7675 51.6028 54.7675 50.9564C54.7675 50.3094 54.2432 49.7852 53.5962 49.7852Z" fill="#793F5C"/>
<path d="M72.6416 49.7852H57.8113C57.1649 49.7852 56.6406 50.3094 56.6406 50.9564C56.6406 51.6028 57.1649 52.1271 57.8113 52.1271H72.6416C73.2886 52.1271 73.8129 51.6028 73.8129 50.9564C73.8129 50.3094 73.2886 49.7852 72.6416 49.7852Z" fill="#793F5C"/>
<path d="M73.8483 21.2769C73.8483 19.6088 72.4915 18.2513 70.8234 18.2513H47.9218C46.2537 18.2513 44.8962 19.6088 44.8962 21.2769V37.1338V37.135V39.9084C44.8962 41.5765 46.2537 42.934 47.9218 42.934H70.8234C72.4915 42.934 73.8483 41.5765 73.8483 39.9084V21.2769ZM71.507 39.9084C71.507 40.2856 71.2 40.592 70.8234 40.592H47.9218C47.5446 40.592 47.2382 40.2856 47.2382 39.9084V37.6196L55.8136 29.0485L61.7322 35.7184C62.1613 36.2024 62.9016 36.2463 63.385 35.8173C63.869 35.3882 63.913 34.6484 63.4839 34.1644L62.9468 33.5596L65.5933 30.9143L71.507 37.5793V39.9084ZM71.507 34.0509L67.0007 28.9728C66.6632 28.5925 66.178 28.3655 65.6696 28.3502C65.1587 28.3356 64.6631 28.5327 64.3036 28.8922L61.3898 31.8042L57.2211 27.1069C56.8835 26.7261 56.3983 26.499 55.8899 26.4844C55.3821 26.4703 54.8834 26.6663 54.5239 27.0258L47.2382 34.3085V21.2769C47.2382 20.8997 47.5446 20.5927 47.9218 20.5927H70.8234C71.2006 20.5927 71.507 20.8997 71.507 21.2769V34.0509Z" fill="#793F5C"/>
</g>
<defs>
<clipPath id="clip0">
<rect width="80" height="80" fill="white"/>
</clipPath>
</defs>
</svg>
