<svg width="80" height="80" viewBox="0 0 80 80" fill="none" xmlns="http://www.w3.org/2000/svg">
<path d="M77.2656 24.8242H64.7473L72.2223 16.5027C72.6373 16.04 72.8479 15.4443 72.8149 14.8242C72.7814 14.2035 72.5085 13.6334 72.0465 13.2184L68.8318 10.3314C67.8778 9.4745 66.4044 9.55323 65.5481 10.5072L52.6874 24.8242H30.3046C29.6576 24.8242 29.1327 25.3485 29.1327 25.9961C29.1327 26.6437 29.6576 27.168 30.3046 27.168H50.5823L45.354 32.9883C44.939 33.4503 44.729 34.0466 44.762 34.6668C44.7662 34.74 44.7736 34.812 44.7839 34.884L42.9871 39.743C42.7203 40.4645 42.9175 41.2628 43.49 41.7767C43.8409 42.0923 44.2841 42.2559 44.7327 42.2559C45.0146 42.2559 45.2991 42.1912 45.5652 42.0593L50.2081 39.751C50.2374 39.7522 50.2661 39.7553 50.296 39.7553C50.3381 39.7553 50.3802 39.754 50.423 39.7516C51.0431 39.718 51.6132 39.4458 52.0288 38.9832L62.6422 27.168H77.2656C77.4811 27.168 77.6562 27.3431 77.6562 27.5586V72.7088C77.6562 72.9242 77.4811 73.0994 77.2656 73.0994H68.7402C68.0933 73.0994 67.5684 73.6237 67.5684 74.2712C67.5684 74.9182 68.0933 75.4431 68.7402 75.4431H77.2656C78.7732 75.4431 80 74.2163 80 72.7088V27.5586C80 26.0504 78.7732 24.8242 77.2656 24.8242ZM70.4669 14.95L69.0747 16.499L65.8875 13.6365L67.2797 12.0868L70.4669 14.95ZM64.3213 15.3803L65.0433 16.0285L47.832 35.1892L47.11 34.5404L64.3213 15.3803ZM46.4606 37.1076L47.8143 38.324L45.6049 39.422L46.4606 37.1076ZM50.2972 37.4036L49.5752 36.7554L66.7871 17.5946L67.5085 18.2428L50.2972 37.4036Z" fill="#793F5C"/>
<path d="M63.6371 73.0994H10.929C6.19507 73.0994 2.34375 69.248 2.34375 64.5142V63.8947C2.34375 59.1608 6.19446 55.3101 10.9283 55.3101H13.3368C14.845 55.3101 16.0712 54.0833 16.0712 52.5757V27.168H25.2014C25.849 27.168 26.3733 26.6431 26.3733 25.9961C26.3733 25.3485 25.849 24.8242 25.2014 24.8242H16.0712V20.755C16.0712 20.108 15.5469 19.5831 14.8993 19.5831C14.2523 19.5831 13.7274 20.108 13.7274 20.755V52.5757C13.7274 52.7911 13.5522 52.9663 13.3368 52.9663H10.9283C7.45056 52.9663 4.34631 54.5996 2.34375 57.1393V15.6165C2.34375 10.8826 6.19507 7.03125 10.929 7.03125H13.3368C13.5522 7.03125 13.7274 7.20642 13.7274 7.42188V15.6519C13.7274 16.2994 14.2523 16.8237 14.8993 16.8237C15.5469 16.8237 16.0712 16.2994 16.0712 15.6519V7.42188C16.0712 5.91431 14.845 4.6875 13.3368 4.6875H10.929C4.90295 4.6875 0 9.58984 0 15.6165V64.5142C0 70.5402 4.90295 75.4431 10.929 75.4431H63.6371C64.2847 75.4431 64.809 74.9182 64.809 74.2712C64.809 73.6237 64.2847 73.0994 63.6371 73.0994Z" fill="#793F5C"/>
<path d="M62.5305 37.196C57.7435 37.196 53.8184 40.9485 53.5376 45.6659H48.1427C47.4957 45.6659 46.9708 46.1908 46.9708 46.8378V60.224C46.9708 60.8716 47.4957 61.3959 48.1427 61.3959H61.5289C62.1765 61.3959 62.7008 60.8716 62.7008 60.224V55.2142C67.5916 55.1227 71.5417 51.1188 71.5417 46.2073C71.5417 41.2384 67.4994 37.196 62.5305 37.196ZM60.3577 52.5092C58.3051 51.7993 56.7047 50.1141 56.1133 48.0096H60.3577V52.5092ZM49.3146 59.0521V48.0096H53.7012C54.3945 51.4105 57.0093 54.1193 60.3577 54.9518V59.0521H49.3146ZM62.7014 52.8705V46.8378C62.7014 46.1908 62.1765 45.6659 61.5295 45.6659H55.8875C56.1639 42.2418 59.0369 39.5398 62.5311 39.5398C66.2073 39.5398 69.1986 42.5305 69.1986 46.2073C69.198 49.8267 66.2988 52.7795 62.7014 52.8705Z" fill="#793F5C"/>
<path d="M66.8842 56.0278C66.2366 56.0278 65.7123 56.5521 65.7123 57.1997C65.7123 57.8467 66.2366 58.3716 66.8842 58.3716H69.491C70.1385 58.3716 70.6628 57.8467 70.6628 57.1997C70.6628 56.5521 70.1385 56.0278 69.491 56.0278H66.8842Z" fill="#793F5C"/>
<path d="M70.6628 60.224C70.6628 59.577 70.1385 59.0521 69.491 59.0521H66.8842C66.2366 59.0521 65.7123 59.577 65.7123 60.224C65.7123 60.8716 66.2366 61.3959 66.8842 61.3959H69.491C70.1385 61.3959 70.6628 60.8716 70.6628 60.224Z" fill="#793F5C"/>
<path d="M21.4062 36.7291H23.2812C23.9282 36.7291 24.4531 36.2048 24.4531 35.5573C24.4531 34.9103 23.9282 34.3854 23.2812 34.3854H21.4062C20.7593 34.3854 20.2344 34.9103 20.2344 35.5573C20.2344 36.2048 20.7593 36.7291 21.4062 36.7291Z" fill="#793F5C"/>
<path d="M21.4062 40.1434H30.4523C31.0999 40.1434 31.6241 39.6185 31.6241 38.9716C31.6241 38.324 31.0999 37.7997 30.4523 37.7997H21.4062C20.7593 37.7997 20.2344 38.324 20.2344 38.9716C20.2344 39.6185 20.7593 40.1434 21.4062 40.1434Z" fill="#793F5C"/>
<path d="M28.5773 36.7291H30.4523C31.0999 36.7291 31.6241 36.2048 31.6241 35.5573C31.6241 34.9103 31.0999 34.3854 30.4523 34.3854H28.5773C27.9303 34.3854 27.4054 34.9103 27.4054 35.5573C27.4054 36.2048 27.9303 36.7291 28.5773 36.7291Z" fill="#793F5C"/>
<path d="M37.6233 34.3854H35.7483C35.1013 34.3854 34.5764 34.9103 34.5764 35.5573C34.5764 36.2048 35.1013 36.7291 35.7483 36.7291H37.6233C38.2709 36.7291 38.7952 36.2048 38.7952 35.5573C38.7952 34.9103 38.2709 34.3854 37.6233 34.3854Z" fill="#793F5C"/>
<path d="M21.4062 43.5321H30.4523C31.0999 43.5321 31.6241 43.0072 31.6241 42.3602C31.6241 41.7126 31.0999 41.1884 30.4523 41.1884H21.4062C20.7593 41.1884 20.2344 41.7126 20.2344 42.3602C20.2344 43.0072 20.7593 43.5321 21.4062 43.5321Z" fill="#793F5C"/>
<path d="M20.2344 45.7483C20.2344 46.3959 20.7593 46.9202 21.4062 46.9202H35.7483C36.3959 46.9202 36.9202 46.3959 36.9202 45.7483C36.9202 45.1013 36.3959 44.5764 35.7483 44.5764H21.4062C20.7593 44.5764 20.2344 45.1013 20.2344 45.7483Z" fill="#793F5C"/>
<path d="M38.7952 49.137C38.7952 48.49 38.2709 47.9651 37.6233 47.9651H21.4062C20.7593 47.9651 20.2344 48.49 20.2344 49.137C20.2344 49.7845 20.7593 50.3088 21.4062 50.3088H37.6233C38.2709 50.3088 38.7952 49.7845 38.7952 49.137Z" fill="#793F5C"/>
<path d="M25.8075 54.5966C25.8075 53.949 25.2826 53.4247 24.6356 53.4247H21.4062C20.7593 53.4247 20.2344 53.949 20.2344 54.5966V57.8253C20.2344 58.4729 20.7593 58.9972 21.4062 58.9972H24.6356C25.2826 58.9972 25.8075 58.4729 25.8075 57.8253V54.5966ZM23.4637 56.6541H22.5781V55.7684H23.4637V56.6541Z" fill="#793F5C"/>
<path d="M33.5553 54.5966C33.5553 53.949 33.0304 53.4247 32.3834 53.4247H29.1541C28.5071 53.4247 27.9822 53.949 27.9822 54.5966V57.8253C27.9822 58.4729 28.5071 58.9972 29.1541 58.9972H32.3834C33.0304 58.9972 33.5553 58.4729 33.5553 57.8253V54.5966ZM31.2115 56.6541H30.3259V55.7684H31.2115V56.6541Z" fill="#793F5C"/>
<path d="M41.3037 54.5966C41.3037 53.949 40.7788 53.4247 40.1318 53.4247H36.9025C36.2549 53.4247 35.7306 53.949 35.7306 54.5966V57.8253C35.7306 58.4729 36.2549 58.9972 36.9025 58.9972H40.1318C40.7788 58.9972 41.3037 58.4729 41.3037 57.8253V54.5966ZM38.96 56.6541H38.0743V55.7684H38.96V56.6541Z" fill="#793F5C"/>
<path d="M24.6356 61.6541H21.4062C20.7593 61.6541 20.2344 62.1783 20.2344 62.8259V66.0547C20.2344 66.7023 20.7593 67.2266 21.4062 67.2266H24.6356C25.2826 67.2266 25.8075 66.7023 25.8075 66.0547V62.8259C25.8075 62.1783 25.2826 61.6541 24.6356 61.6541ZM23.4637 64.8828H22.5781V63.9972H23.4637V64.8828Z" fill="#793F5C"/>
<path d="M32.3834 61.6541H29.1541C28.5071 61.6541 27.9822 62.1783 27.9822 62.8259V66.0547C27.9822 66.7023 28.5071 67.2266 29.1541 67.2266H32.3834C33.0304 67.2266 33.5553 66.7023 33.5553 66.0547V62.8259C33.5553 62.1783 33.0304 61.6541 32.3834 61.6541ZM31.2115 64.8828H30.3259V63.9972H31.2115V64.8828Z" fill="#793F5C"/>
<path d="M36.9025 67.2266H40.1318C40.7788 67.2266 41.3037 66.7023 41.3037 66.0547V62.8253C41.3037 62.1783 40.7788 61.6534 40.1318 61.6534H36.9025C36.2549 61.6534 35.7306 62.1783 35.7306 62.8253V66.0547C35.7306 66.7023 36.2549 67.2266 36.9025 67.2266ZM38.0743 63.9978H38.96V64.8828H38.0743V63.9978Z" fill="#793F5C"/>
</svg>
