<svg width="80" height="78" viewBox="0 0 80 78" fill="none" xmlns="http://www.w3.org/2000/svg">
<path d="M51.0348 19.7909C53.1887 19.7909 54.9411 18.0386 54.9411 15.8847C54.9411 13.7308 53.1887 11.9783 51.0348 11.9783C48.8809 11.9783 47.1286 13.7308 47.1286 15.8847C47.1286 16.7644 47.4211 17.5769 47.9137 18.2306L41.4956 27.1995C41.1126 27.0737 40.7041 27.0047 40.2794 27.0047C39.253 27.0047 38.3183 27.4033 37.6205 28.053L33.3425 25.6255C33.3995 25.3605 33.4302 25.0858 33.4302 24.8041C33.4302 22.6501 31.6778 20.8978 29.5239 20.8978C27.37 20.8978 25.6177 22.6501 25.6177 24.8041C25.6177 25.0858 25.6483 25.3605 25.7053 25.6255L21.4273 28.053C20.7295 27.4033 19.7948 27.0048 18.7684 27.0048C16.6145 27.0048 14.8622 28.7573 14.8622 30.9112C14.8622 33.0651 16.6145 34.8176 18.7684 34.8176C20.9223 34.8176 22.6747 33.0651 22.6747 30.9112C22.6747 30.6295 22.6441 30.3548 22.587 30.0898L26.865 27.6623C27.5628 28.312 28.4975 28.7106 29.5239 28.7106C30.5503 28.7106 31.4848 28.312 32.1828 27.6625L36.4608 30.09C36.4037 30.355 36.3731 30.6297 36.3731 30.9114C36.3731 33.0653 38.1255 34.8178 40.2794 34.8178C42.4334 34.8178 44.1858 33.0653 44.1858 30.9114C44.1858 30.0316 43.8931 29.2189 43.4005 28.5651L49.8186 19.5962C50.2014 19.7219 50.6101 19.7909 51.0348 19.7909ZM51.0348 14.322C51.8964 14.322 52.5973 15.023 52.5973 15.8847C52.5973 16.7462 51.8964 17.4472 51.0348 17.4472C50.1733 17.4472 49.4723 16.7462 49.4723 15.8847C49.4722 15.023 50.1731 14.322 51.0348 14.322ZM18.768 32.4736C17.9064 32.4736 17.2055 31.7726 17.2055 30.9109C17.2055 30.0492 17.9064 29.3483 18.768 29.3483C19.6295 29.3483 20.3305 30.0492 20.3305 30.9109C20.3305 31.7726 19.6295 32.4736 18.768 32.4736ZM29.5236 26.3666C28.662 26.3666 27.9611 25.6656 27.9611 24.8039C27.9611 23.9423 28.662 23.2414 29.5236 23.2414C30.3852 23.2414 31.0861 23.9423 31.0861 24.8039C31.0862 25.6656 30.3852 26.3666 29.5236 26.3666ZM40.2792 32.4736C39.4176 32.4736 38.7167 31.7726 38.7167 30.9109C38.7167 30.0492 39.4176 29.3483 40.2792 29.3483C41.1409 29.3483 41.8419 30.0492 41.8419 30.9109C41.8419 31.7726 41.1408 32.4736 40.2792 32.4736Z" fill="#793F5C"/>
<path d="M65.4369 57.9007H57.2359H12.5669H3.31484C2.77938 57.9007 2.34375 57.4651 2.34375 56.9296V8.58291C2.34375 8.04744 2.77938 7.61182 3.31484 7.61182H8.83922C9.48641 7.61182 10.0111 7.08729 10.0111 6.43994C10.0111 5.7926 9.48641 5.26807 8.83922 5.26807H3.31484C1.48703 5.26807 0 6.7551 0 8.58291V56.9296C0 58.7574 1.48703 60.2445 3.31484 60.2445H11.395V62.8235C11.395 64.2928 12.5903 65.4881 14.0595 65.4881H25.7898L20.268 76.269C19.973 76.8451 20.2006 77.5512 20.7767 77.8464C20.9477 77.934 21.1302 77.9754 21.31 77.9754C21.7358 77.9754 22.1466 77.7426 22.3539 77.3374L28.4231 65.4881H41.3797L47.4489 77.3374C47.6564 77.7426 48.067 77.9754 48.4928 77.9754C48.6727 77.9754 48.8552 77.9337 49.0261 77.8464C49.6022 77.5512 49.83 76.8451 49.5348 76.269L44.013 65.4881H55.7433C57.2125 65.4881 58.4078 64.2929 58.4078 62.8235V60.2445H65.4369C66.0841 60.2445 66.6087 59.7199 66.6087 59.0726C66.6087 58.4253 66.0841 57.9007 65.4369 57.9007ZM56.0641 62.8235C56.0641 63.0004 55.9202 63.1443 55.7433 63.1443H14.0595C13.8827 63.1443 13.7388 63.0004 13.7388 62.8235V60.2445H56.0641V62.8235Z" fill="#793F5C"/>
<path d="M13.5267 7.61185H29.5692H40.2334H66.4878C67.0233 7.61185 67.4589 8.04747 67.4589 8.58294V19.7253C67.4589 20.3726 67.9836 20.8972 68.6308 20.8972C69.278 20.8972 69.8027 20.3726 69.8027 19.7253V8.58294C69.8027 6.75513 68.3156 5.2681 66.4878 5.2681H41.4055V2.96466C41.4055 1.34356 40.0866 0.0246582 38.4653 0.0246582H31.3375C29.7164 0.0246582 28.3974 1.34356 28.3974 2.96466V5.2681H13.5267C12.8795 5.2681 12.3549 5.79263 12.3549 6.43997C12.3549 7.08732 12.8795 7.61185 13.5267 7.61185ZM30.7411 2.96466C30.7411 2.63591 31.0086 2.36841 31.3375 2.36841H38.4653C38.7941 2.36841 39.0617 2.63591 39.0617 2.96466V5.2681H30.7413V2.96466H30.7411Z" fill="#793F5C"/>
<path d="M16.3909 40.8087C15.7437 40.8087 15.2191 41.3332 15.2191 41.9806V52.3356C15.2191 52.9829 15.7437 53.5075 16.3909 53.5075H21.1451C21.7923 53.5075 22.317 52.9829 22.317 52.3356V41.9806C22.317 41.3332 21.7923 40.8087 21.1451 40.8087H16.3909ZM19.9733 51.1639H17.5628V43.1526H19.9733V51.1639Z" fill="#793F5C"/>
<path d="M27.1464 34.8199C26.4992 34.8199 25.9745 35.3445 25.9745 35.9918V52.3357C25.9745 52.9831 26.4992 53.5076 27.1464 53.5076H31.9006C32.5478 53.5076 33.0725 52.9831 33.0725 52.3357V35.9918C33.0725 35.3445 32.5478 34.8199 31.9006 34.8199H27.1464ZM30.7289 51.1638H28.3184V37.1637H30.7289V51.1638Z" fill="#793F5C"/>
<path d="M37.902 40.8087C37.2549 40.8087 36.7302 41.3332 36.7302 41.9806V52.3356C36.7302 52.9829 37.2549 53.5075 37.902 53.5075H42.6563C43.3034 53.5075 43.8281 52.9829 43.8281 52.3356V41.9806C43.8281 41.3332 43.3034 40.8087 42.6563 40.8087H37.902ZM41.4844 51.1639H39.0739V43.1526H41.4844V51.1639Z" fill="#793F5C"/>
<path d="M48.6577 47.7237C48.0105 47.7237 47.4858 48.2482 47.4858 48.8956V52.3357C47.4858 52.9831 48.0105 53.5076 48.6577 53.5076H53.4119C54.0591 53.5076 54.5837 52.9831 54.5837 52.3357C54.5837 51.6884 54.0591 51.1638 53.4119 51.1638H49.8295V48.8956C49.8295 48.2482 49.3048 47.7237 48.6577 47.7237Z" fill="#793F5C"/>
<path d="M79.4024 59.0029L72.6794 47.3582C74.3827 45.5428 75.623 43.3245 76.2855 40.852C77.3444 36.9003 76.8009 32.7726 74.7553 29.2295C70.5325 21.9149 61.1464 19.4004 53.8324 23.6231C46.5181 27.8457 44.0033 37.2318 48.2261 44.546C50.2717 48.0892 53.5747 50.6235 57.5264 51.6826C58.8461 52.0362 60.185 52.211 61.5155 52.211C62.6783 52.211 63.8344 52.0773 64.965 51.8126L71.6866 63.4576C72.5105 64.8853 74.0108 65.6842 75.5517 65.684C76.3069 65.684 77.0719 65.492 77.7717 65.0882C79.1461 64.2949 80 62.8157 80 61.2279C80 60.4499 79.7934 59.6807 79.4024 59.0029ZM58.133 49.4187C54.7859 48.5218 51.9883 46.3751 50.2556 43.3742C46.6791 37.1792 48.8092 29.2295 55.0041 25.6528C57.042 24.4762 59.2691 23.9174 61.4688 23.9174C65.9555 23.9174 70.3255 26.2445 72.7255 30.4013C74.458 33.4023 74.9183 36.8982 74.0214 40.2454C73.1245 43.5926 70.9778 46.3899 67.9769 48.1226C64.9761 49.8553 61.4802 50.3153 58.133 49.4187ZM76.6003 63.0582C75.592 63.6404 74.2983 63.2938 73.7166 62.286L67.2497 51.0823C67.8978 50.8178 68.5325 50.5084 69.1491 50.1524C69.7661 49.7962 70.3505 49.3996 70.9038 48.9703L77.3725 60.1745C77.5581 60.4965 77.6563 60.8609 77.6563 61.2281C77.6563 61.9809 77.2516 62.6823 76.6003 63.0582Z" fill="#793F5C"/>
<path d="M72.1159 40.1892C72.9432 37.5242 72.7462 34.6711 71.5611 32.1554C71.2851 31.5698 70.587 31.3189 70.0015 31.5947C69.4159 31.8706 69.165 32.5687 69.4409 33.1542C70.3757 35.1386 70.5309 37.39 69.8776 39.494C69.2207 41.6097 67.8017 43.3851 65.8818 44.4936C63.8503 45.6667 61.4832 45.9779 59.2175 45.3709C56.9515 44.7637 55.0575 43.3104 53.8847 41.2789C51.4632 37.085 52.9054 31.7031 57.0993 29.2817C60.1657 27.5115 63.9712 27.7481 66.7948 29.8843C67.3111 30.275 68.0459 30.1733 68.4364 29.657C68.8268 29.1409 68.7251 28.4059 68.2089 28.0154C64.6321 25.309 59.8112 25.0095 55.9273 27.2518C53.3536 28.7378 51.5125 31.1372 50.7432 34.0078C49.974 36.8784 50.3689 39.8769 51.8548 42.4506C53.3407 45.0245 55.7401 46.8654 58.6107 47.6348C59.5693 47.8917 60.5421 48.0187 61.5086 48.0187C63.4364 48.0187 65.3393 47.5131 67.0536 46.5233C69.4859 45.1192 71.2837 42.8698 72.1159 40.1892Z" fill="#793F5C"/>
</svg>
