<svg width="50" height="50" viewBox="0 0 50 50" fill="none" xmlns="http://www.w3.org/2000/svg">
<g clip-path="url(#clip0)">
<path d="M17.6487 49.9344C18.1371 50.194 18.6523 49.6317 18.3533 49.1664C16.7303 46.6403 15.1933 42.3897 17.642 36.9154C21.7255 27.7865 24.2103 23.0584 24.2103 23.0584C24.2103 23.0584 25.532 28.5761 29.1147 33.482C32.5628 38.2037 34.4502 44.142 31.4075 49.089C31.122 49.5533 31.6255 50.1011 32.1107 49.8528C35.877 47.9262 40.1014 44.0616 40.578 36.371C40.7538 34.021 40.4902 30.731 39.1723 26.5793C37.4778 21.3173 35.3946 18.862 34.1893 17.8076C33.8287 17.4922 33.268 17.7717 33.2976 18.2498C33.6488 23.9275 31.5129 25.3682 30.2971 22.1212C29.8116 20.8244 29.5284 18.5812 29.5284 15.8495C29.5284 11.3017 28.209 6.62016 25.3 2.81591C24.5436 1.82661 23.6585 0.902178 22.6429 0.11386C22.2753 -0.171598 21.7424 0.11533 21.776 0.579547C21.9994 3.66256 21.797 12.4983 14.0453 23.0542C7.01675 32.8459 9.74029 40.366 10.7067 42.4027C12.5544 46.3046 15.1317 48.596 17.6487 49.9344Z" fill="#F2F2E6"/>
</g>
<defs>
<clipPath id="clip0">
<rect width="50" height="50" fill="white"/>
</clipPath>
</defs>
</svg>
