<svg width="400" height="292" viewBox="0 0 400 292" fill="none" xmlns="http://www.w3.org/2000/svg">
<path d="M361.196 0H67.3419C65.9965 0.00574651 64.6655 0.27661 63.4249 0.797106C62.1843 1.3176 61.0584 2.07752 60.1117 3.03342C59.1649 3.98931 58.4159 5.12243 57.9074 6.368C57.3989 7.61357 57.1409 8.94715 57.1481 10.2925V216.947C57.1409 218.292 57.3989 219.626 57.9074 220.871C58.4159 222.117 59.1649 223.25 60.1117 224.206C61.0584 225.162 62.1843 225.922 63.4249 226.442C64.6655 226.963 65.9965 227.234 67.3419 227.239H361.196C362.541 227.234 363.872 226.963 365.113 226.442C366.353 225.922 367.479 225.162 368.426 224.206C369.372 223.25 370.122 222.117 370.63 220.871C371.139 219.626 371.397 218.292 371.389 216.947V10.2925C371.397 8.94715 371.139 7.61357 370.63 6.368C370.122 5.12243 369.372 3.98931 368.426 3.03342C367.479 2.07752 366.353 1.3176 365.113 0.797106C363.872 0.27661 362.541 0.00574651 361.196 0V0Z" fill="url(#paint0_linear)"/>
<path d="M370.062 21.894V214.483C370.062 217.163 368.997 219.733 367.102 221.629C365.207 223.524 362.636 224.589 359.956 224.589H68.6983C66.0181 224.589 63.4476 223.524 61.5523 221.629C59.6571 219.733 58.5923 217.163 58.5923 214.483V21.894H370.062Z" fill="#F6F7F9"/>
<path d="M134.676 121.159V224.585H68.6984C63.1188 224.585 58.5923 219.971 58.5923 214.282V121.159H134.676Z" fill="#DDE1EC"/>
<path d="M284.073 45.4735H157.265V49.0384H284.073V45.4735Z" fill="#DDE1EC"/>
<path d="M233.744 70.8336H157.265V74.3985H233.744V70.8336Z" fill="#DDE1EC"/>
<path d="M276.545 70.8336H250.786V74.3985H276.545V70.8336Z" fill="#DDE1EC"/>
<g opacity="0.1">
<path opacity="0.1" d="M107.729 159.795H81.9707V163.36H107.729V159.795Z" fill="#ED6767"/>
</g>
<path d="M276.545 104.121H250.786V107.686H276.545V104.121Z" fill="#DDE1EC"/>
<path d="M276.545 137.408H250.786V140.973H276.545V137.408Z" fill="#DDE1EC"/>
<path d="M276.545 81.9305H250.786V85.4954H276.545V81.9305Z" fill="#DDE1EC"/>
<path d="M320.925 81.9305H295.166V85.4954H320.925V81.9305Z" fill="#DDE1EC"/>
<path d="M276.545 93.0238H250.786V96.5887H276.545V93.0238Z" fill="#DDE1EC"/>
<path d="M320.925 93.0238H295.166V96.5887H320.925V93.0238Z" fill="#DDE1EC"/>
<path d="M320.925 113.631H295.166V117.196H320.925V113.631Z" fill="#DDE1EC"/>
<path d="M320.925 124.728H295.166V128.293H320.925V124.728Z" fill="#DDE1EC"/>
<path d="M320.925 148.505H295.166V152.069H320.925V148.505Z" fill="#DDE1EC"/>
<path d="M233.744 81.9305H157.265V85.4954H233.744V81.9305Z" fill="#DDE1EC"/>
<path d="M233.744 93.0238H157.265V96.5887H233.744V93.0238Z" fill="#DDE1EC"/>
<path d="M233.744 104.121H157.265V107.686H233.744V104.121Z" fill="#DDE1EC"/>
<path d="M233.744 115.218H157.265V118.782H233.744V115.218Z" fill="#DDE1EC"/>
<path d="M233.744 126.311H157.265V129.876H233.744V126.311Z" fill="#DDE1EC"/>
<path d="M233.744 137.408H157.265V140.973H233.744V137.408Z" fill="#DDE1EC"/>
<path d="M233.744 148.505H157.265V152.069H233.744V148.505Z" fill="#DDE1EC"/>
<path d="M134.676 21.6965H58.5923V123.141H134.676V21.6965Z" fill="#ED6767"/>
<path d="M370.062 11.5905C370.061 8.91084 368.996 6.34127 367.101 4.44682C365.206 2.55236 362.636 1.48812 359.956 1.48812H68.6983C66.0181 1.48812 63.4476 2.55286 61.5523 4.44811C59.6571 6.34336 58.5923 8.91387 58.5923 11.5942V23.0859H370.062V11.5905Z" fill="#E8EAF1"/>
<path d="M70.8775 16.1499C73.0665 16.1499 74.841 14.3754 74.841 12.1865C74.841 9.99753 73.0665 8.22304 70.8775 8.22304C68.6886 8.22304 66.9141 9.99753 66.9141 12.1865C66.9141 14.3754 68.6886 16.1499 70.8775 16.1499Z" fill="#FF5252"/>
<path d="M83.9525 16.1499C86.1414 16.1499 87.9159 14.3754 87.9159 12.1865C87.9159 9.99753 86.1414 8.22304 83.9525 8.22304C81.7635 8.22304 79.989 9.99753 79.989 12.1865C79.989 14.3754 81.7635 16.1499 83.9525 16.1499Z" fill="#FFFF00"/>
<path d="M97.0311 16.1499C99.22 16.1499 100.995 14.3754 100.995 12.1865C100.995 9.99753 99.22 8.22304 97.0311 8.22304C94.8421 8.22304 93.0676 9.99753 93.0676 12.1865C93.0676 14.3754 94.8421 16.1499 97.0311 16.1499Z" fill="#69F0AE"/>
<path d="M118.83 72.4205C118.837 77.5027 117.091 82.4318 113.887 86.3766C113.766 86.5265 113.645 86.6728 113.521 86.819C113.497 86.8439 113.475 86.8708 113.455 86.8994C112.32 88.2133 111.035 89.39 109.627 90.4058L109.444 90.5411C109.192 90.7203 108.936 90.9068 108.676 91.0603L108.497 91.1737L108.113 91.4113C108.057 91.4472 107.998 91.4802 107.938 91.51C107.89 91.5442 107.84 91.5748 107.788 91.6015C107.225 91.9305 106.644 92.234 106.048 92.5119C105.982 92.5484 105.909 92.5777 105.839 92.6106C105.77 92.6435 105.689 92.6837 105.609 92.713C105.528 92.7422 105.371 92.819 105.243 92.8665C103.966 93.4071 102.64 93.8234 101.283 94.1097C99.9901 94.3865 98.6747 94.5468 97.3528 94.5887H97.1517H96.6289C94.8844 94.5947 93.1454 94.3946 91.4479 93.9927L91.1298 93.9159C90.3839 93.7209 89.6526 93.4942 88.936 93.2358C88.5009 93.0749 88.0695 92.8994 87.649 92.713C87.543 92.6654 87.4406 92.6216 87.3345 92.5704L87.0165 92.4278L86.7386 92.2852L86.4461 92.1353L86.1207 91.9634L85.755 91.755L85.6965 91.7221C84.138 90.8377 82.6918 89.7684 81.3894 88.5375C81.2797 88.4314 81.1664 88.3291 81.0603 88.2157C80.9543 88.1024 80.83 87.989 80.7203 87.872C78.1875 85.2637 76.3344 82.073 75.3239 78.5806C74.3135 75.0881 74.1767 71.4008 74.9255 67.8431C75.6743 64.2853 77.2858 60.9661 79.6183 58.1772C81.9508 55.3884 84.9328 53.2153 88.3021 51.8493C91.6714 50.4832 95.3248 49.9659 98.9409 50.3429C102.557 50.7199 106.025 51.9796 109.04 54.0113C112.055 56.043 114.525 58.7844 116.232 61.9945C117.939 65.2045 118.831 68.7848 118.83 72.4205V72.4205Z" fill="white"/>
<path d="M109.119 81.309V81.3382L109.144 81.3638C109.137 81.3419 109.126 81.3272 109.119 81.309ZM86.7569 92.2779C86.7203 91.766 86.6837 91.3053 86.6508 90.9104C86.6252 90.6325 86.5996 90.3839 86.5777 90.1792C86.5755 90.1695 86.5755 90.1595 86.5777 90.1499C86.5777 90.0987 86.5777 90.0512 86.5777 90.0037C86.2253 90.5416 85.9358 91.1182 85.7148 91.7221L85.7733 91.755L86.1389 91.9634L86.4644 92.1353L86.7569 92.2852C86.7569 92.4485 86.7691 92.6191 86.7934 92.7971C86.7751 92.6216 86.7678 92.4534 86.7569 92.2888V92.2779ZM91.6234 71.3748L91.6417 71.4077C91.643 71.4162 91.643 71.4248 91.6417 71.4333C91.6385 71.4165 91.6323 71.4004 91.6234 71.3857V71.3748Z" fill="url(#paint1_linear)"/>
<path d="M97.989 67.6417C97.989 67.6417 96.6691 73.5722 100.296 76.7057C103.923 79.8391 91.7294 82.2925 89.5795 79.6709C87.4296 77.0494 91.0713 75.7112 91.0713 75.7112C91.0713 75.7112 92.8994 74.2267 91.0713 69.7806L97.989 67.6417Z" fill="#E0A17E"/>
<path d="M101.28 94.117C99.9865 94.3938 98.671 94.5541 97.3492 94.596H97.1481H96.6252C94.8817 94.5993 93.1439 94.3968 91.4479 93.9927L91.1298 93.9159C90.3839 93.7209 89.6526 93.4942 88.936 93.2358L88.5704 87.7514L90.1572 80.1572L91.0896 75.6819L91.3528 74.4315L91.6197 74.7971L91.6782 74.8775L91.7514 74.9726L94.6764 78.8666L97.6709 75.6417L97.8245 75.4735L98.6472 74.585L98.9579 74.2523L99.1042 75.3821L99.6307 79.4442L100.607 86.936L101.28 94.117Z" fill="#F0F1F5"/>
<path opacity="0.1" d="M109.441 90.5411C109.188 90.7203 108.932 90.9068 108.673 91.0603L108.494 91.1737L108.11 91.4113C108.053 91.4472 107.994 91.4802 107.934 91.51C107.887 91.5442 107.836 91.5748 107.784 91.6015C106.979 90.9144 106.374 90.0226 106.033 89.0201C105.99 88.8928 105.953 88.7635 105.923 88.6325C105.921 88.6119 105.921 88.5911 105.923 88.5704L105.715 89.1188L105.075 90.702C105.075 90.702 105.265 91.4771 105.605 92.7057C105.486 92.7617 105.364 92.8129 105.239 92.8592C103.963 93.3998 102.636 93.8161 101.28 94.1024C99.9865 94.3792 98.671 94.5395 97.3492 94.5813H97.1481C96.9632 92.8817 96.8985 91.1712 96.9543 89.4625L97.4369 80.2596L97.6819 75.6161L97.8172 73.0567C97.8172 73.0567 97.8647 73.1079 97.9561 73.192C98.0475 73.276 98.1097 73.3382 98.2194 73.4369C99.8513 74.8628 101.907 75.7121 104.069 75.8537C104.667 75.8709 105.252 76.0257 105.78 76.306C106.307 76.5863 106.763 76.9846 107.112 77.4698C107.772 78.4094 108.197 79.4942 108.351 80.6325L108.461 81.638L108.49 81.9232L108.53 82.2888L109.441 90.5411Z" fill="black"/>
<path d="M109.623 90.4095L109.441 90.5448C109.188 90.7239 108.932 90.9104 108.673 91.064L108.494 91.1773L108.11 91.415C107.25 90.7238 106.595 89.811 106.216 88.7751V88.7751C106.198 88.7323 106.183 88.6883 106.172 88.6435C106.132 88.5155 106.095 88.3803 106.066 88.2486L105.916 88.6398L105.711 89.17L105.243 90.3912C105.243 90.3912 105.459 91.2687 105.839 92.6216C105.762 92.6581 105.689 92.6947 105.609 92.7239C105.528 92.7532 105.371 92.83 105.243 92.8775C103.966 93.4181 102.64 93.8344 101.283 94.1207C99.9901 94.3975 98.6747 94.5578 97.3528 94.5996C97.1395 92.7896 97.0625 90.966 97.1225 89.1444L97.5905 80.2267L97.8391 75.4735L97.9598 73.2322L97.9817 72.7678C98.0012 72.7898 98.0219 72.8105 98.0439 72.83C99.7282 74.4469 101.93 75.4168 104.26 75.5685C104.848 75.5855 105.426 75.7362 105.948 76.0092C106.47 76.2822 106.923 76.6704 107.272 77.1444C107.952 78.0922 108.388 79.1919 108.545 80.3473L108.739 82.1499V82.1755L108.779 82.5411L109.623 90.4095Z" fill="#293158"/>
<path opacity="0.1" d="M91.8464 73.883V74.106L91.7879 74.9543L91.5832 77.8574C91.5832 77.8574 91.4625 78.6947 91.3748 80.5814C91.2468 83.0676 91.17 87.3748 91.4662 94L91.1481 93.9232C90.4022 93.7282 89.6709 93.5015 88.9543 93.2431C88.5192 93.0823 88.0878 92.9068 87.6673 92.7203C87.5612 92.6728 87.4589 92.6289 87.3528 92.5777C87.2468 91.1152 87.1188 90.2194 87.1188 90.2194C87.1188 90.2194 87.0201 90.3437 86.8702 90.585C86.808 90.6837 86.7313 90.8044 86.6508 90.9506L86.6325 90.9835C86.5619 91.1054 86.4863 91.2444 86.4059 91.4004C86.3145 91.5832 86.223 91.766 86.1353 91.9963L85.7697 91.7879L85.7112 91.755C84.1526 90.8706 82.7064 89.8013 81.404 88.5704C81.9927 86.4973 82.5009 84.4132 82.6837 84.1463C83.3655 83.099 83.8891 81.9569 84.2377 80.7568C84.4812 79.9418 84.9027 79.1909 85.4718 78.5586C86.0409 77.9263 86.7433 77.4283 87.5283 77.1005C89.1688 76.3317 90.6355 75.237 91.8391 73.883H91.8464Z" fill="black"/>
<path d="M91.8501 73.7806C90.4349 74.9789 88.8582 75.9722 87.1664 76.7313C86.3813 77.059 85.6789 77.557 85.1098 78.1893C84.5408 78.8217 84.1192 79.5725 83.8757 80.3876C83.5272 81.5876 83.0036 82.7297 82.3218 83.777C82.1426 84.0439 81.6307 86.1316 81.0421 88.2084C81.1481 88.3181 81.2614 88.4241 81.3711 88.5302C82.6735 89.7611 84.1197 90.8304 85.6782 91.7148L85.7367 91.7477C85.9501 91.2043 86.2197 90.6847 86.5411 90.1974L86.5594 90.1682C86.6874 89.9781 86.7678 89.8757 86.7678 89.8757C86.7678 89.8757 86.8007 90.117 86.8483 90.5521C86.8958 90.9872 86.958 91.649 87.0165 92.4168L87.3346 92.5594C87.4369 92.6106 87.5393 92.6545 87.649 92.702C88.0695 92.8885 88.5009 93.0676 88.936 93.2249C89.6453 93.4857 90.3766 93.7124 91.1298 93.9049C90.83 87.3455 90.8958 83.0238 91.0165 80.4753C91.1115 78.4205 91.2395 77.5101 91.2395 77.5101L91.7038 74.841L91.8355 74.0878L91.8976 73.7221L91.8501 73.7806Z" fill="#293158"/>
<path opacity="0.1" d="M94.2011 73.4113C93.379 73.4122 92.5675 73.2259 91.8281 72.8665C91.7004 71.919 91.4458 70.993 91.0713 70.1133L97.989 67.9744C97.7369 69.3 97.6888 70.6563 97.8464 71.9963C96.8498 72.9053 95.55 73.4098 94.2011 73.4113V73.4113Z" fill="black"/>
<path d="M94.2011 73.0823C97.2038 73.0823 99.638 70.6481 99.638 67.6453C99.638 64.6426 97.2038 62.2084 94.2011 62.2084C91.1984 62.2084 88.7642 64.6426 88.7642 67.6453C88.7642 70.6481 91.1984 73.0823 94.2011 73.0823Z" fill="#E0A17E"/>
<g opacity="0.1">
<path opacity="0.1" d="M105.25 92.8739C104.823 91.3711 104.585 90.3839 104.585 90.3839L105.408 88.2413C105.472 88.5425 105.566 88.8364 105.689 89.1188L105.707 89.1664L105.239 90.3876C105.239 90.3876 105.455 91.2651 105.835 92.6179C105.759 92.6545 105.686 92.691 105.605 92.7203C105.525 92.7495 105.367 92.8263 105.25 92.8739Z" fill="black"/>
</g>
<path d="M111.667 82.6362C111.667 82.6362 111.174 77.8574 111.667 75.5503C112.161 73.2431 105.901 75.8793 107.218 79.0091C107.922 80.7442 108.805 82.4009 109.854 83.9525L111.667 82.6362Z" fill="#E0A17E"/>
<path opacity="0.1" d="M113.452 86.8995C112.316 88.2132 111.031 89.3899 109.623 90.4059L109.441 90.5411C109.188 90.7203 108.932 90.9068 108.673 91.0603C108.083 90.3612 107.557 89.6112 107.101 88.819L107.053 88.7349L108.373 81.8135L108.512 81.9561C108.57 82.011 108.647 82.0841 108.739 82.1572H108.757C109.441 82.7422 110.885 83.6197 111.58 81.5795C111.697 81.2224 111.781 80.8552 111.832 80.4826L111.967 80.9872L112.048 81.2834L113.51 86.8007L113.452 86.8995Z" fill="black"/>
<path d="M113.452 86.8995C112.316 88.2133 111.032 89.39 109.623 90.4058L109.441 90.5411C109.188 90.7203 108.932 90.9068 108.673 91.0603L108.494 91.1737C107.958 90.5089 107.476 89.8022 107.053 89.0603L107.101 88.8154L108.373 82.1389C108.373 82.1389 108.439 82.2157 108.552 82.3218L108.779 82.5229C108.874 82.6033 108.984 82.691 109.104 82.7715C109.861 83.2907 111.013 83.6819 111.598 81.8574C111.706 81.5187 111.784 81.1712 111.832 80.819L112 81.4406L113.452 86.8995Z" fill="#293158"/>
<path opacity="0.02" d="M113.452 86.8995C112.316 88.2133 111.032 89.39 109.623 90.4058L109.441 90.5411C109.188 90.7203 108.932 90.9068 108.673 91.0603L108.494 91.1737C107.958 90.5089 107.476 89.8022 107.053 89.0603L107.101 88.8154L108.373 82.1389C108.373 82.1389 108.439 82.2157 108.552 82.3218L108.779 82.5229C108.874 82.6033 108.984 82.691 109.104 82.7715C109.861 83.2907 111.013 83.6819 111.598 81.8574C111.706 81.5187 111.784 81.1712 111.832 80.819L112 81.4406L113.452 86.8995Z" fill="black"/>
<path opacity="0.1" d="M86.5777 90.1828L86.5594 90.2121C86.5594 90.1938 86.5594 90.1718 86.5594 90.1572C86.7898 89.3565 86.9982 88.8154 87.1847 88.6545C87.1847 88.6545 87.4296 90.2815 87.649 92.7203C87.543 92.6727 87.4406 92.6289 87.3346 92.5777L87.0165 92.4351C86.9616 91.649 86.9031 91.0091 86.8483 90.5704C86.7934 90.1316 86.7678 89.894 86.7678 89.894C86.7678 89.894 86.7057 89.9927 86.5777 90.1828Z" fill="black"/>
<path opacity="0.1" d="M94.2669 66.1463C94.5512 65.9904 94.8785 65.9313 95.1993 65.9781C95.3379 66.0366 95.4625 66.1238 95.5649 66.234C95.9927 66.6399 96.4168 67.1115 96.9945 67.2358C97.3513 67.2901 97.7152 67.2739 98.0658 67.1883C98.6809 67.1172 99.278 66.9351 99.8281 66.6508C101.053 65.9196 101.444 64.3364 101.521 62.9141C101.547 62.4351 101.448 61.8172 100.976 61.7148C100.377 61.5868 99.9378 62.4973 99.3309 62.3985C99.1464 62.3537 98.9803 62.2528 98.8556 62.1097C98.4424 61.6965 98.1609 61.1664 97.7587 60.7495C97.1157 60.1486 96.2826 59.7916 95.404 59.7404C94.5325 59.6931 93.6589 59.7757 92.8117 59.9854C92.3445 60.0625 91.8935 60.217 91.4771 60.4424C91.2709 60.5552 91.092 60.7119 90.953 60.9014C90.814 61.091 90.7183 61.3087 90.6728 61.5393C90.6325 61.8574 90.7166 62.1865 90.6545 62.5009C90.593 62.7133 90.4886 62.9109 90.3477 63.0813C90.2069 63.2517 90.0325 63.3914 89.8355 63.4918C89.4698 63.7185 89.0384 63.8574 88.6801 64.1353C88.1106 64.5777 87.7156 65.207 87.5649 65.9122C87.4187 66.6136 87.3989 67.3355 87.5064 68.0439C87.6564 69.2746 87.9995 70.4739 88.5228 71.5978C88.6958 71.9901 88.9182 72.3587 89.1846 72.6947C89.5756 73.1213 90.0249 73.4906 90.5192 73.7916C90.6087 73.8728 90.7152 73.933 90.831 73.9678C90.9468 74.0026 91.0688 74.0111 91.1883 73.9927C91.2568 73.9681 91.32 73.9309 91.3748 73.883C91.8428 73.4918 91.8867 72.7861 91.7404 72.1901C91.5941 71.5941 91.3455 71.0274 91.3163 70.4205C91.2976 70.2501 91.3307 70.0781 91.4113 69.9269C91.5088 69.8045 91.6192 69.693 91.7404 69.5942C91.8987 69.4121 92.0226 69.2027 92.106 68.9762C92.3857 68.4168 92.5769 67.8173 92.6728 67.1993C92.7257 66.6903 92.6142 66.1778 92.3547 65.7367C92.6058 65.9729 92.9167 66.1358 93.2537 66.208C93.5908 66.2802 93.9411 66.2588 94.2669 66.1463V66.1463Z" fill="black"/>
<path d="M94.2669 65.9561C94.5512 65.8002 94.8785 65.7412 95.1993 65.7879C95.3379 65.8464 95.4625 65.9337 95.5649 66.0439C95.9927 66.4497 96.4168 66.9214 96.9945 67.0457C97.3513 67.0999 97.7152 67.0838 98.0658 66.9982C98.6809 66.9271 99.278 66.745 99.8281 66.4607C101.053 65.7294 101.444 64.1463 101.521 62.7239C101.547 62.245 101.448 61.6271 100.976 61.5247C100.377 61.3967 99.9378 62.3071 99.3309 62.2084C99.1464 62.1636 98.9803 62.0627 98.8556 61.9196C98.4424 61.5064 98.1609 60.9762 97.7587 60.5594C97.1157 59.9585 96.2826 59.6015 95.404 59.5503C94.5325 59.503 93.6589 59.5856 92.8117 59.7952C92.3445 59.8724 91.8935 60.0268 91.4771 60.2523C91.2709 60.3651 91.092 60.5218 90.953 60.7113C90.814 60.9008 90.7183 61.1186 90.6728 61.3492C90.6325 61.6673 90.7166 61.9963 90.6545 62.3108C90.593 62.5232 90.4886 62.7207 90.3477 62.8912C90.2069 63.0616 90.0325 63.2013 89.8355 63.3016C89.4698 63.5283 89.0384 63.6673 88.6801 63.9452C88.1106 64.3876 87.7156 65.0169 87.5649 65.7221C87.4187 66.4235 87.3989 67.1454 87.5064 67.8537C87.6564 69.0844 87.9995 70.2838 88.5228 71.4077C88.6958 71.8 88.9182 72.1686 89.1846 72.5046C89.5756 72.9312 90.0249 73.3005 90.5192 73.6015C90.6087 73.6827 90.7152 73.7429 90.831 73.7777C90.9468 73.8125 91.0688 73.821 91.1883 73.8026C91.2568 73.778 91.32 73.7408 91.3748 73.6929C91.8428 73.3017 91.8867 72.596 91.7404 72C91.5941 71.404 91.3455 70.8373 91.3163 70.2304C91.2976 70.06 91.3307 69.888 91.4113 69.7368C91.5088 69.6144 91.6192 69.5029 91.7404 69.404C91.8987 69.2219 92.0226 69.0126 92.106 68.7861C92.3857 68.2267 92.5769 67.6272 92.6728 67.0091C92.7257 66.5002 92.6142 65.9876 92.3547 65.5466C92.6058 65.7827 92.9167 65.9457 93.2537 66.0179C93.5908 66.0901 93.9411 66.0687 94.2669 65.9561V65.9561Z" fill="#463E3B"/>
<path d="M64.351 207.075C69.4377 207.075 73.5612 205.561 73.5612 203.693C73.5612 201.825 69.4377 200.311 64.351 200.311C59.2643 200.311 55.1408 201.825 55.1408 203.693C55.1408 205.561 59.2643 207.075 64.351 207.075Z" fill="#CD9494"/>
<path opacity="0.05" d="M64.351 205.042C66.9458 205.042 69.0494 204.269 69.0494 203.316C69.0494 202.363 66.9458 201.59 64.351 201.59C61.7562 201.59 59.6526 202.363 59.6526 203.316C59.6526 204.269 61.7562 205.042 64.351 205.042Z" fill="black"/>
<path d="M55.1371 202.951C55.1371 202.951 65.287 208.589 73.5576 203.704C73.5576 203.704 72.4314 223.254 66.7898 225.133H59.2761C59.2761 225.133 52.8848 211.96 55.1371 202.951Z" fill="#FF7361"/>
<path d="M72.3035 167.119C74.8885 176.563 63.8684 203.466 63.8684 203.466C63.8684 203.466 40.691 185.916 38.106 176.475C36.8653 171.94 37.4768 167.098 39.8061 163.014C42.1354 158.931 45.9916 155.939 50.5265 154.698C55.0614 153.458 59.9034 154.069 63.9874 156.398C68.0713 158.728 71.0627 162.584 72.3035 167.119V167.119Z" fill="#ED6767"/>
<path opacity="0.1" d="M72.3035 167.119C74.8885 176.563 63.8684 203.466 63.8684 203.466C63.8684 203.466 40.691 185.916 38.106 176.475C36.8653 171.94 37.4768 167.098 39.8061 163.014C42.1354 158.931 45.9916 155.939 50.5265 154.698C55.0614 153.458 59.9034 154.069 63.9874 156.398C68.0713 158.728 71.0627 162.584 72.3035 167.119V167.119Z" fill="black"/>
<path d="M50.6216 154.75C50.6216 154.75 65.0494 176.53 63.9634 203.514" stroke="#535461" stroke-miterlimit="10"/>
<path d="M75.9854 184.377C75.9854 184.377 62.8885 177.258 64.5594 203.532C64.5594 203.532 75.4735 203.141 79.3455 194.238C80.1021 192.506 80.1977 190.558 79.6141 188.761C79.0306 186.964 77.8085 185.443 76.1792 184.486L75.9854 184.377Z" fill="#ED6767"/>
<path d="M76.2011 184.42C76.2011 184.42 74.5119 198.059 64.5594 203.532" stroke="#535461" stroke-miterlimit="10"/>
<path opacity="0.05" d="M72.3291 204.329C71.9634 208.826 70.3876 222.793 65.6673 224.369H58.9287C59.1444 224.848 59.276 225.122 59.276 225.122H66.7971C72.4314 223.239 73.5612 203.682 73.5612 203.682C73.1618 203.918 72.7505 204.134 72.3291 204.329V204.329Z" fill="black"/>
<path d="M233.744 172.874H157.265V217.258H233.744V172.874Z" fill="#DDE1EC"/>
<path d="M359.353 85.2688C359.363 85.1251 359.363 84.9809 359.353 84.8373C359.221 83.053 357.525 81.7624 355.843 81.075C354.161 80.3876 352.282 80.0512 350.793 79.0091C348.278 77.2468 347.503 73.9525 347.276 70.9397C347.207 70.0037 347.177 69.0676 347.174 68.128C347.17 67.1883 347.232 66.1499 347.32 65.1627C347.466 63.5247 347.708 61.8282 347.686 60.1865C347.771 58.6201 347.47 57.0568 346.808 55.6344C345.316 52.6874 341.967 51.181 338.867 49.8976C337.675 49.404 336.453 48.9031 335.159 48.8483C333.792 48.7898 332.461 49.2322 331.166 49.6709C329.112 50.3656 327.027 51.2687 324.903 51.7404C323.711 52.0037 322.406 51.8062 321.247 52.2267C318.973 53.0603 318.486 55.1042 318.523 57.3455C318.523 57.4881 318.523 57.6271 318.523 57.7697C318.296 57.5612 318.062 57.3638 317.825 57.1737L317.686 57.064C317.442 56.8665 317.182 56.6801 316.907 56.5046L316.775 56.4205C316.216 56.0583 315.631 55.7393 315.024 55.4662L314.932 55.426C314.628 55.2919 314.318 55.17 314.004 55.0603L313.945 55.0384C313.294 54.8115 312.627 54.6355 311.949 54.5119V54.5119C309.812 54.116 307.612 54.2496 305.539 54.901C303.466 55.5524 301.584 56.7018 300.059 58.2486L297.547 60.808C286.128 58.2486 285.616 68.1682 285.616 68.1682L285.7 68.1499L285.671 68.2194C285.931 69.4746 286.259 70.7147 286.654 71.9342L198.475 162L189.561 189.627L194.567 187.843L217.433 179.675L299.313 96.0329C305.441 100.388 311.81 106.223 311.81 106.223C311.81 106.223 307.861 108.311 309.324 117.876C311.112 129.576 308.424 146.23 308.424 146.23V157.002L308.929 156.863C308.867 157.229 308.801 157.594 308.739 158.015C307.906 163.427 307.8 168.926 308.424 174.366C309.777 185.795 315.181 201.4 315.181 201.4C315.181 201.4 317.207 206.885 317.66 211.291C317.731 212.161 317.926 213.016 318.238 213.832C319.254 216.249 319.791 218.841 319.817 221.463C319.817 226.245 320.442 233.422 323.291 240.746C325.576 246.625 326.42 250.07 326.673 252.08C325.053 254.223 322.936 256.559 321.265 256.793C318.113 257.232 312.029 257.671 316.084 262.947C316.226 263.128 316.383 263.296 316.556 263.448C313.477 263.945 310.091 265.042 313.382 269.32C317.437 274.596 341.313 272.179 341.313 272.179C341.313 272.179 341.466 269.254 341.313 266.029C342.987 265.912 344.022 265.806 344.022 265.806C344.022 265.806 344.698 253.057 341.77 251.517C341.228 251.576 340.697 251.707 340.19 251.905C339.876 250.143 339.634 247.953 339.484 246.329L340.644 246.241V227.119C340.644 227.119 339.291 215.25 334.336 209.974C333.705 209.316 333.16 208.578 332.717 207.781C332.753 206.256 332.757 204.124 332.739 201.664C332.936 201.331 333.17 201.022 333.437 200.742C333.437 200.742 336.139 197.452 345.375 176.563C350.823 164.245 349.609 157.133 347.697 153.367C347.331 152.029 346.38 148.208 345.137 141.174C343.561 132.161 345.364 123.367 345.364 123.367C345.364 123.367 351.214 108.201 353.923 102.048C354.551 100.565 354.811 98.9537 354.684 97.3492C355.389 96.8336 355.729 95.9744 356.033 95.1554L358.808 87.7514C359.108 86.9506 359.415 86.117 359.349 85.2651L359.353 85.2688ZM321.664 71.9378C321.965 72.4082 322.301 72.8555 322.669 73.2761V73.2761C322.669 73.2761 322.256 72.8446 321.572 72.1499C321.605 72.0804 321.634 72.0073 321.664 71.9378ZM308.018 87.1371L315.656 79.3346C318.296 81.7477 321.122 84.2121 323.484 86.2413C323.259 87.2811 322.961 88.3038 322.592 89.3017C321.569 89.8099 320.216 89.9744 318.57 89.0786C315.963 87.6709 311.152 87.2541 308.018 87.1371Z" fill="url(#paint2_linear)"/>
<path d="M301.872 58.3437C301.872 58.3437 296.208 61.6124 297.952 66.2048C297.952 66.2048 303.835 67.9488 306.23 72.3071C308.625 76.6655 327.148 92.351 327.148 92.351L340.655 85.5832C340.655 85.5832 335.956 79.309 321.093 74.9287C321.093 74.9287 312.318 65.5357 309.28 63.7952C306.241 62.0548 301.872 58.3437 301.872 58.3437Z" fill="#FEBDD5"/>
<path opacity="0.05" d="M301.872 58.3437C301.872 58.3437 296.208 61.6124 297.952 66.2048C297.952 66.2048 303.835 67.9488 306.23 72.3071C308.625 76.6655 327.148 92.351 327.148 92.351L340.655 85.5832C340.655 85.5832 335.956 79.309 321.093 74.9287C321.093 74.9287 312.318 65.5357 309.28 63.7952C306.241 62.0548 301.872 58.3437 301.872 58.3437Z" fill="black"/>
<path d="M200.958 162.867L299.232 59.989C301.555 57.5609 304.746 56.154 308.105 56.0772C311.465 56.0004 314.717 57.2601 317.148 59.5795C319.576 61.9021 320.983 65.0935 321.06 68.4527C321.137 71.812 319.877 75.0643 317.558 77.4954L219.298 180.388L192.336 190.26L200.958 162.867Z" fill="#ED6767"/>
<path opacity="0.1" d="M311.792 57.755C314.22 60.0776 315.627 63.269 315.703 66.6282C315.78 69.9875 314.521 73.2398 312.201 75.6709L213.931 178.548L193.689 185.952L192.322 190.252L219.283 180.38L317.569 77.5393C319.888 75.1082 321.148 71.8558 321.071 68.4966C320.994 65.1374 319.587 61.946 317.159 59.6234V59.6234C315.135 57.6836 312.522 56.473 309.733 56.1828C310.471 56.6355 311.161 57.1623 311.792 57.755V57.755Z" fill="white"/>
<path d="M200.958 162.87L219.298 180.388L197.177 188.483L192.336 190.252L195.404 180.516L200.958 162.87Z" fill="#EFC8C4"/>
<path d="M195.404 180.512C196.075 180.642 196.715 180.899 197.291 181.269C197.956 181.748 198.439 182.578 198.256 183.375C198.076 183.871 197.819 184.336 197.495 184.753C197.165 185.311 196.965 185.936 196.91 186.582C196.855 187.227 196.946 187.877 197.177 188.483L192.322 190.252L195.404 180.512Z" fill="#727A9C"/>
<path d="M337.17 244.194C337.17 244.194 337.824 253.781 338.914 254.87C340.004 255.96 329.108 256.614 329.108 256.614L330.633 244.183L337.17 244.194Z" fill="#FFB9B9"/>
<path opacity="0.05" d="M337.17 244.194C337.17 244.194 337.824 253.781 338.914 254.87C340.004 255.96 329.108 256.614 329.108 256.614L330.633 244.183L337.17 244.194Z" fill="black"/>
<path d="M339.565 251.601C339.565 251.601 338.04 251.601 332.592 254.435C332.592 254.435 328.889 253.781 327.364 248.552C327.364 248.552 322.79 256.395 319.737 256.83C316.684 257.265 310.804 257.7 314.724 262.932C318.644 268.165 341.74 265.766 341.74 265.766C341.74 265.766 342.399 253.126 339.565 251.601Z" fill="#CBCDDA"/>
<path opacity="0.05" d="M339.565 251.601C339.565 251.601 338.04 251.601 332.592 254.435C332.592 254.435 328.889 253.781 327.364 248.552C327.364 248.552 322.79 256.395 319.737 256.83C316.684 257.265 310.804 257.7 314.724 262.932C318.644 268.165 341.74 265.766 341.74 265.766C341.74 265.766 342.399 253.126 339.565 251.601Z" fill="black"/>
<path d="M336.296 259.009L334.771 263.148L324.75 260.314L325.32 256.205L325.459 255.214L325.824 252.472C325.824 252.472 334.322 250.278 334.322 251.375C334.437 252.273 334.624 253.161 334.881 254.029C335.247 255.367 335.667 256.896 335.978 257.901C336.168 258.574 336.296 259.009 336.296 259.009Z" fill="#FFB9B9"/>
<path d="M330.83 202.186C330.143 203.349 329.367 205.528 330.812 208.249C331.239 209.036 331.765 209.766 332.377 210.42C337.17 215.649 338.479 227.415 338.479 227.415V246.369L335.21 246.622L329.982 247.024L322.121 214.782C322.121 214.782 317.547 191.25 319.726 187.112C321.905 182.973 323.865 157.046 323.865 157.046L325.675 155.174L329.967 150.728H342.399C343.392 151.44 344.217 152.363 344.815 153.43C346.899 156.881 348.771 164.058 343.053 177.309C334.121 198.007 331.506 201.276 331.506 201.276C331.247 201.553 331.02 201.858 330.83 202.186V202.186Z" fill="#4C4C78"/>
<path opacity="0.05" d="M330.83 202.186C330.143 203.349 329.367 205.528 330.812 208.249C331.239 209.036 331.765 209.766 332.377 210.42C337.17 215.649 338.479 227.415 338.479 227.415V246.369L335.21 246.622L329.982 247.024L322.121 214.782C322.121 214.782 317.547 191.25 319.726 187.112C321.905 182.973 323.865 157.046 323.865 157.046L325.675 155.174L329.967 150.728H342.399C343.392 151.44 344.217 152.363 344.815 153.43C346.899 156.881 348.771 164.058 343.053 177.309C334.121 198.007 331.506 201.276 331.506 201.276C331.247 201.553 331.02 201.858 330.83 202.186V202.186Z" fill="black"/>
<path opacity="0.1" d="M334.896 254.037L325.459 255.214L325.824 252.472C325.824 252.472 334.322 250.278 334.322 251.375C334.441 252.276 334.633 253.166 334.896 254.037V254.037Z" fill="black"/>
<path d="M330.197 174.256C330.197 174.256 330.739 191.408 330.83 202.186C330.848 204.625 330.83 206.739 330.812 208.249C330.825 209.049 330.766 209.85 330.636 210.64C329.982 212.6 331.291 216.958 331.291 216.958C336.739 231.338 335.214 243.974 335.214 243.974V253.561L324.75 254.87C324.75 254.87 326.494 253.561 321.7 240.925C318.947 233.664 318.351 226.552 318.34 221.81C318.315 219.215 317.796 216.649 316.812 214.249C316.515 213.437 316.333 212.588 316.271 211.726C315.835 207.367 313.876 201.92 313.876 201.92C313.876 201.92 308.647 186.45 307.338 175.119C306.734 169.726 306.836 164.277 307.642 158.91C307.835 157.546 308.097 156.193 308.428 154.856C308.428 154.856 329.726 141.452 337.77 150.717C338.548 151.622 339.166 152.653 339.598 153.766C340.039 154.865 340.383 156 340.625 157.159C343.097 169.466 330.197 174.256 330.197 174.256Z" fill="#4C4C78"/>
<path d="M329.543 78.8263C335.68 78.8263 340.655 73.8515 340.655 67.7148C340.655 61.5781 335.68 56.6033 329.543 56.6033C323.406 56.6033 318.431 61.5781 318.431 67.7148C318.431 73.8515 323.406 78.8263 329.543 78.8263Z" fill="#FFB9B9"/>
<path d="M323.444 74.6837C323.444 74.6837 328.018 87.5393 323.444 94.2925C318.87 101.046 338.04 98.8665 338.04 98.8665L345.448 89.9342C345.448 89.9342 336.731 89.9342 336.307 74.6837C335.883 59.4333 323.444 74.6837 323.444 74.6837Z" fill="#FFB9B9"/>
<path opacity="0.1" d="M345.448 155.952C343.868 156.5 342.243 156.907 340.592 157.17C337.879 157.587 334.68 157.605 332.808 155.952C331.711 154.973 328.965 154.856 325.682 155.166C318.768 155.828 309.408 158.41 307.616 158.918C307.809 157.554 308.071 156.2 308.402 154.863C308.402 154.863 329.7 141.459 337.744 150.724H342.391C343.385 151.437 344.21 152.359 344.808 153.426C345.214 155.159 345.448 155.952 345.448 155.952Z" fill="black"/>
<path opacity="0.1" d="M336.296 259.009L334.771 263.148L324.75 260.314L325.32 256.205C327.042 260.015 329.978 260.53 329.978 260.53C333.144 258.885 334.987 258.194 335.974 257.905C336.168 258.574 336.296 259.009 336.296 259.009Z" fill="black"/>
<path d="M336.951 257.92C336.951 257.92 335.426 257.92 329.978 260.753C329.978 260.753 326.274 260.099 324.75 254.87C324.75 254.87 320.176 262.713 317.122 263.148C314.069 263.583 308.19 264.011 312.113 269.25C316.037 274.49 339.13 272.084 339.13 272.084C339.13 272.084 339.784 259.444 336.951 257.92Z" fill="#CBCDDA"/>
<path d="M285.261 69.8428C285.261 69.8428 285.755 60.011 296.801 62.5484L293.967 67.8611L285.261 69.8428Z" fill="#FFB9B9"/>
<path d="M336.746 92.5521C336.746 92.5521 326.069 90.808 323.236 88.6289C323.236 88.6289 321.042 92.7678 317.133 90.5887C313.225 88.4095 304.062 88.6289 304.062 88.6289C304.062 88.6289 296.435 84.4899 294.921 75.1188C294.921 75.1188 293.397 69.4552 293.824 67.9305C293.824 67.9305 288.161 62.0475 285.327 69.8903C286.424 75.3382 287.287 74.9031 287.071 79.2578L290.556 88.8446C290.556 88.8446 290.775 92.1133 297.093 96.4717C303.411 100.83 310.603 107.583 310.603 107.583C310.603 107.583 306.79 109.653 308.208 119.13C309.938 130.713 307.338 147.236 307.338 147.236V157.912C307.338 157.912 329.126 151.594 332.83 154.863C336.534 158.132 345.466 154.863 345.466 154.863C345.466 154.863 344.369 151.159 342.852 142.227C341.335 133.294 343.071 124.578 343.071 124.578C343.071 124.578 348.735 109.543 351.349 103.444C353.963 97.3455 349.389 89.064 344.812 86.0146C340.234 82.9653 338.534 84.7971 338.534 84.7971C338.534 84.7971 346.537 90.5923 336.746 92.5521Z" fill="#FEBDD5"/>
<path opacity="0.1" d="M317.525 64.9945C317.521 65.448 317.598 65.8986 317.751 66.3254C318.005 66.8108 318.352 67.2419 318.771 67.5941C320.402 69.1883 321.835 71.0823 322.409 73.2907C322.797 74.7861 322.775 76.351 322.753 77.8976C322.658 84.1536 322.388 90.9068 318.534 95.8135C317.115 97.6234 315.287 99.0603 313.572 100.592C313.331 100.772 313.15 101.021 313.053 101.305C313.005 101.603 313.062 101.908 313.214 102.168C314.011 103.824 315.689 104.841 317.28 105.762C318.011 106.183 318.771 106.618 319.612 106.643C321.594 106.709 322.903 104.614 324.706 103.792C327.331 102.592 330.274 104.26 332.881 105.503C334.768 106.401 336.746 107.091 338.782 107.561C341.572 108.205 344.724 108.362 347.071 106.728C348.428 105.771 349.355 104.321 349.653 102.687C349.843 101.623 349.813 100.388 350.618 99.6673C351.035 99.3016 351.601 99.1408 352.047 98.8117C352.746 98.2998 353.075 97.4406 353.371 96.6179L356.055 89.2797C356.401 88.5042 356.579 87.6645 356.578 86.8153C356.45 85.0494 354.819 83.766 353.185 83.0859C351.55 82.4058 349.74 82.0731 348.3 81.0384C345.868 79.2907 345.115 76.0256 344.896 73.0384C344.746 70.9869 344.761 68.9267 344.94 66.8775C345.207 63.8391 345.799 60.5996 344.446 57.8647C343.002 54.9397 339.762 53.4516 336.768 52.1792C335.616 51.6892 334.431 51.1956 333.181 51.1408C331.857 51.0823 330.57 51.5064 329.32 51.9561C327.331 52.6472 325.298 53.5393 323.261 54.0073C322.11 54.2706 320.845 54.0731 319.733 54.4899C315.649 56.0256 317.525 61.7075 317.525 64.9945Z" fill="black"/>
<path d="M317.525 64.5594C317.521 65.0129 317.598 65.4635 317.751 65.8903C318.005 66.3757 318.352 66.8068 318.772 67.1591C320.402 68.7532 321.835 70.6472 322.41 72.8556C322.797 74.351 322.775 75.9159 322.753 77.4625C322.658 83.7185 322.388 90.4717 318.534 95.3784C317.115 97.1883 315.287 98.6252 313.572 100.157C313.332 100.333 313.15 100.576 313.049 100.856C313.002 101.153 313.059 101.458 313.21 101.718C314.007 103.375 315.686 104.391 317.276 105.313C318.007 105.733 318.768 106.168 319.609 106.194C321.591 106.26 322.899 104.165 324.702 103.342C327.327 102.143 330.271 103.81 332.878 105.053C334.764 105.951 336.743 106.641 338.779 107.112C341.569 107.755 344.72 107.912 347.068 106.278C348.425 105.322 349.352 103.871 349.649 102.238C349.839 101.174 349.81 99.9379 350.614 99.2176C351.031 98.8519 351.598 98.6911 352.044 98.362C352.742 97.8501 353.071 96.9909 353.367 96.1682L356.051 88.83C356.397 88.0545 356.575 87.2147 356.574 86.3656C356.446 84.5996 354.815 83.3163 353.181 82.6362C351.547 81.9561 349.737 81.6234 348.296 80.5887C345.865 78.841 345.112 75.5759 344.892 72.5887C344.742 70.5372 344.757 68.477 344.936 66.4278C345.203 63.3894 345.795 60.1499 344.442 57.415C342.998 54.49 339.759 53.0018 336.764 51.7294C335.612 51.2395 334.428 50.7459 333.177 50.691C331.854 50.6325 330.567 51.0567 329.316 51.5064C327.327 52.1974 325.294 53.0896 323.258 53.5576C322.106 53.8208 320.841 53.6234 319.729 54.0402C315.649 55.6015 317.525 61.2724 317.525 64.5594Z" fill="#B96B6B"/>
<path opacity="0.05" d="M308.742 124.022C308.742 124.022 310.479 123.609 319.196 122.293C327.912 120.976 343.163 124.037 343.163 124.037" fill="black"/>
<defs>
<linearGradient id="paint0_linear" x1="214.271" y1="227.239" x2="214.271" y2="0" gradientUnits="userSpaceOnUse">
<stop stop-color="#808080" stop-opacity="0.25"/>
<stop offset="0.54" stop-color="#808080" stop-opacity="0.12"/>
<stop offset="1" stop-color="#808080" stop-opacity="0.1"/>
</linearGradient>
<linearGradient id="paint1_linear" x1="-7677.83" y1="6599.61" x2="-7677.83" y2="5343.83" gradientUnits="userSpaceOnUse">
<stop stop-color="#808080" stop-opacity="0.25"/>
<stop offset="0.54" stop-color="#808080" stop-opacity="0.12"/>
<stop offset="1" stop-color="#808080" stop-opacity="0.1"/>
</linearGradient>
<linearGradient id="paint2_linear" x1="136648" y1="178455" x2="136648" y2="41356.3" gradientUnits="userSpaceOnUse">
<stop stop-color="#808080" stop-opacity="0.25"/>
<stop offset="0.54" stop-color="#808080" stop-opacity="0.12"/>
<stop offset="1" stop-color="#808080" stop-opacity="0.1"/>
</linearGradient>
</defs>
</svg>
