<svg width="400" height="304" viewBox="0 0 400 304" fill="none" xmlns="http://www.w3.org/2000/svg">
<g clip-path="url(#clip0)">
<path d="M215.192 303.201C295.715 303.201 360.992 284.551 360.992 261.544C360.992 238.537 295.715 219.887 215.192 219.887C134.669 219.887 69.3924 238.537 69.3924 261.544C69.3924 284.551 134.669 303.201 215.192 303.201Z" fill="#F5F5F5"/>
<path d="M353.911 99.4939C353.911 99.4939 328.083 125.321 342.663 163.646C357.243 201.97 317.669 265.706 317.669 265.706C317.669 265.706 318.085 265.643 318.881 265.506C371.927 256.141 398.284 195.472 368.786 150.403C357.835 133.649 348.816 113.991 353.911 99.4939Z" fill="#ED6767"/>
<path d="M353.911 99.4939C353.911 99.4939 339.331 131.153 353.911 156.981C368.491 182.808 356.41 255.292 317.669 265.706" stroke="#535461" stroke-width="2" stroke-miterlimit="10"/>
<path d="M399.908 203.957C399.908 203.957 370.436 199.263 367.749 225.677C365.062 252.092 311.095 255.75 311.095 255.75C311.095 255.75 311.445 255.991 312.108 256.425C356.681 285.685 399.292 275.062 392.872 236.208C390.469 221.766 390.66 207.257 399.908 203.957Z" fill="#ED6767"/>
<path opacity="0.2" d="M399.908 203.957C399.908 203.957 370.436 199.263 367.749 225.677C365.062 252.092 311.095 255.75 311.095 255.75C311.095 255.75 311.445 255.991 312.108 256.425C356.681 285.685 399.292 275.062 392.872 236.208C390.469 221.766 390.66 207.257 399.908 203.957Z" fill="#F5F5F5"/>
<path d="M399.908 203.957C399.908 203.957 377.03 208.981 378.909 229.785C380.788 250.588 344.921 275.516 311.079 255.741" stroke="#535461" stroke-width="2" stroke-miterlimit="10"/>
<path opacity="0.2" d="M63.0689 0.033372C59.7113 -0.0832679 56.2704 0.0333719 53.1212 1.2081C44.5523 4.4032 40.4907 14.855 41.8113 23.9071C43.1318 32.9592 48.5639 40.8199 54.2001 48.0224C59.8363 55.2249 65.9432 62.3358 69.0342 70.9338C70.5755 75.2286 71.2962 80.04 69.7299 84.3266C67.3138 90.9375 60.0279 94.6325 53.0337 95.399C46.0395 96.1655 39.0161 94.67 31.9968 94.1493C29.0517 93.941 26.0232 93.916 23.2488 94.8825C20.2037 95.9364 17.6668 98.0859 15.334 100.327C6.23191 109.117 -1.05392 121.114 0.124975 133.711C1.458 147.991 13.3469 159.28 26.369 165.333C30.6805 167.341 35.2419 168.965 39.0369 171.832C49.0346 179.388 51.2799 193.547 50.2843 206.049C49.2887 218.55 45.8978 231.064 47.7849 243.457C50.0052 257.87 59.8321 270.888 73.0874 276.97C84.8972 282.385 99.6772 282.048 110.162 274.387C115.274 270.638 119.139 265.468 122.501 260.107C127.575 252.019 131.692 243.368 134.769 234.33C136.231 230.035 137.606 225.415 141.018 222.428C143.101 220.591 145.8 219.562 148.47 218.762C156.518 216.355 164.996 215.692 173.119 213.551C181.242 211.41 189.415 207.419 193.831 200.283C200.079 190.156 197.163 177.205 197.192 165.291C197.242 138.148 213.484 113.845 219.479 87.3925C221.437 78.7445 222.166 69.1759 217.792 61.4651C214.817 56.2038 209.806 52.4547 204.536 49.5387C192.956 43.1068 179.792 40.245 166.841 37.4581C148.841 33.5924 126.983 33.0925 113.032 20.587C99.6438 8.58974 81.3272 0.033372 63.0689 0.033372Z" fill="#ED6767"/>
<g opacity="0.5">
<path opacity="0.5" d="M128.362 105.097C128.361 98.5542 127.337 92.052 125.325 85.8262L120.327 70.3256C120.327 70.0673 120.327 69.8132 120.327 69.5591C120.481 59.6239 112.737 54.6667 109.754 55.2041C106.701 55.7539 98.2275 51.5049 98.2275 51.5049V51.6215C97.6465 50.9528 97.1226 50.2366 96.6612 49.4804C98.1251 48.4142 99.3612 47.066 100.297 45.5153C101.232 43.9645 101.848 42.2424 102.109 40.4502C102.369 38.6579 102.269 36.8317 101.813 35.0789C101.358 33.326 100.556 31.6819 99.4564 30.2431C100.372 29.555 101.071 28.6179 101.468 27.5437C102.16 25.5983 101.631 23.378 100.506 21.6451C100.028 20.9217 99.4689 20.255 98.8398 19.658C97.8871 18.7142 96.8465 17.8633 95.7322 17.117C92.9537 15.1924 89.9002 13.5386 86.5677 12.9512C85.991 12.8151 85.3906 12.8151 84.8139 12.9512C84.3134 13.1532 83.837 13.4103 83.3934 13.7177C81.1106 15.0174 78.2696 14.4551 75.6368 14.3176C73.0041 14.1801 69.8048 14.9175 68.9717 17.3877C68.7134 18.1501 68.7301 18.9749 68.5551 19.758C68.1386 21.6742 66.6597 23.1614 65.5183 24.7569C64.3769 26.3523 63.5229 28.506 64.4727 30.2389C64.7976 30.8221 65.3059 31.3595 65.3059 32.026C65.3059 32.5051 65.0226 32.9342 64.8893 33.3924C64.6019 34.4338 65.1434 35.4752 65.9765 36.2292C66.3356 36.6163 66.7582 36.9389 67.2263 37.1832C68.5468 37.858 70.0673 38.0663 71.4128 38.6912C72.0844 39.0066 72.7006 39.4286 73.2374 39.9409C73.8949 40.6292 74.4089 41.4416 74.7493 42.3306C75.0898 43.2195 75.2499 44.1674 75.2203 45.1189L75.4994 45.148C75.4994 45.2313 75.4994 45.3105 75.4994 45.3938C75.791 45.4271 76.0992 45.4563 76.4033 45.4688C76.8408 46.175 77.3413 46.84 77.8988 47.4558C77.8044 47.8113 77.6975 48.1723 77.5781 48.5389C76.5991 49.2179 68.5926 54.55 59.4864 53.267C49.7678 51.8965 44.2107 94.3867 44.2107 94.3867C43.8505 96.8166 43.675 99.2703 43.6858 101.727C43.6442 107.975 44.9564 116.153 52.2672 114.949L56.1538 113.67V134.686C56.1538 134.686 56.7078 140.443 54.7666 144.267C52.8254 148.091 60.8777 146.733 60.8777 146.733C60.8777 146.733 61.186 147.054 61.7525 147.6L61.5734 148.104L61.8108 148.345C60.7518 151.966 59.3238 155.468 57.5493 158.797L57.7784 158.914C57.6326 159.193 57.5493 159.33 57.5493 159.33C57.5493 159.33 60.5403 160.859 64.656 162.829C67.9636 174.01 75.2036 199.904 72.8208 204.836L72.8875 204.978C73.3332 205.903 75.8243 211.356 75.3202 216.35C74.8662 220.816 81.0481 241.107 83.3559 248.476L82.2645 248.697L86.1511 262.677L85.3179 271.725C85.3179 271.725 80.5982 284.335 91.704 281.869C102.81 279.403 99.7563 269.259 99.7563 269.259L100.035 248.697C100.035 248.697 98.9648 248.101 97.6443 247.531C96.7362 245.077 94.7575 239.279 94.7575 235.267C94.7575 230.06 91.1458 207.577 91.1458 207.577V207.532V207.444V207.419L91.125 207.119V207.069C91.125 206.79 91.0791 206.407 91.0458 205.94V205.915C90.6292 199.838 89.3795 179.188 90.2918 168.424C91.0941 167.877 91.9288 167.379 92.7912 166.933C95.4948 173.764 102.464 192.223 102.018 199.967C101.464 209.548 101.881 202.025 102.018 200.8C102.06 200.421 102.089 200.879 102.102 201.908C102.102 202.095 102.102 202.304 102.102 202.524C102.102 202.745 102.102 202.991 102.102 203.245C102.102 203.499 102.102 203.774 102.102 204.078C102.102 204.223 102.102 204.37 102.102 204.52C102.102 204.82 102.102 205.134 102.102 205.461C102.102 205.625 102.102 205.792 102.102 205.961C102.102 206.794 102.102 207.719 102.072 208.681C102.072 208.873 102.072 209.067 102.072 209.265C102.072 209.852 102.072 210.452 102.043 211.06C102.043 211.893 102.01 212.701 101.993 213.539C101.952 215.413 101.897 217.309 101.831 219.083C101.831 219.28 101.824 219.476 101.81 219.671C101.796 220.059 101.781 220.44 101.764 220.812C101.748 221.184 101.731 221.548 101.714 221.903C101.698 222.256 101.679 222.599 101.66 222.932C101.639 223.324 101.614 223.699 101.593 224.057L100.085 223.84L99.7646 227.306C99.2594 232.809 99.9704 238.355 101.847 243.553C102.364 244.977 102.764 246.156 102.851 246.577C103.131 247.947 102.851 257.824 102.851 257.824C102.851 257.824 104.518 270.709 112.295 268.239C115.794 267.126 117.494 263.744 118.306 260.353C119.208 256.422 118.871 252.309 117.344 248.576C116.24 245.802 115.111 241.911 115.907 238.904C117.294 233.696 117.294 226.294 117.294 226.294L116.436 226.173C116.65 225.767 116.843 225.35 117.015 224.923C117.015 224.923 116.736 206.007 119.235 203.541C120.61 202.183 120.485 198.921 120.068 196.255C119.473 192.397 119.333 188.482 119.652 184.591C119.823 182.587 120.068 180.842 120.356 180.221C121.089 178.772 121.822 164.158 118.577 157.127L119.244 156.918L119.139 156.402L119.244 156.368C119.733 157.675 120.289 158.955 120.91 160.205C121.074 160.334 121.262 160.427 121.464 160.48C130.458 158.901 130.82 150.507 130.32 145.925C130.699 146.108 130.908 146.225 130.908 146.225L131.741 134.144C132.595 132.216 132.911 129.754 132.89 127.092C132.928 117.577 128.362 105.097 128.362 105.097ZM118.448 139.435C117.831 134.173 116.977 129.22 116.977 129.22L112.812 114.415V109.025L119.418 133.686L118.448 139.435Z" fill="url(#paint0_linear)"/>
</g>
<path d="M99.7188 220.304L99.4106 223.69C98.9241 229.072 99.6135 234.494 101.431 239.583C101.927 240.978 102.314 242.128 102.397 242.54C102.664 243.882 102.397 253.525 102.397 253.525C102.397 253.525 104.005 266.118 111.508 263.706C114.882 262.623 116.507 259.311 117.306 256C118.174 252.159 117.848 248.145 116.373 244.494C115.307 241.782 114.216 237.97 114.986 235.042C116.328 229.951 116.328 222.72 116.328 222.72L99.7188 220.304Z" fill="#5A5773"/>
<path d="M91.6832 162.167C91.6832 162.167 102.131 187.619 101.593 196.992C101.056 206.365 101.46 199 101.593 197.796C101.831 195.651 101.593 221.124 100.789 224.04C100.789 224.04 111.774 232.076 116.061 221.362C116.061 221.362 115.794 202.879 118.202 200.467C119.527 199.142 119.398 195.951 119.006 193.347C118.428 189.581 118.288 185.761 118.59 181.962C118.752 180.005 118.977 178.28 119.269 177.693C120.073 176.085 120.876 157.868 116.053 152.777L91.6832 162.167Z" fill="#605D82"/>
<path opacity="0.1" d="M102.131 224.053C102.935 221.108 103.172 195.651 102.935 197.809C102.801 199.013 102.397 206.382 102.935 197.005C103.472 187.628 93.0245 162.179 93.0245 162.179L116.398 153.19C116.29 153.052 116.178 152.923 116.065 152.802L91.6873 162.179C91.6873 162.179 102.135 187.632 101.598 197.005C101.06 206.378 101.464 199.013 101.598 197.809C101.835 195.663 101.598 221.137 100.794 224.053C100.794 224.053 105.18 227.26 109.492 226.919C105.655 226.631 102.131 224.053 102.131 224.053Z" fill="black"/>
<path d="M82.5728 244.681L86.3219 258.345L85.5179 267.185C85.5179 267.185 80.9648 279.507 91.679 277.095C102.393 274.683 99.4481 264.773 99.4481 264.773L99.7147 244.681C99.7147 244.681 95.4281 242.269 93.5536 242.54C91.679 242.811 82.5728 244.681 82.5728 244.681Z" fill="#5A5773"/>
<path d="M64.0895 155.739C64.0895 155.739 76.4117 195.655 73.4665 201.816C73.4665 201.816 76.4117 207.711 75.8785 213.064C75.3453 218.417 84.4515 247.085 84.4515 247.085L97.8484 244.673C97.8484 244.673 94.6325 236.637 94.6325 231.547C94.6325 226.456 91.15 204.47 91.15 204.47C91.15 204.47 88.2048 164.283 91.6873 159.997L64.0895 155.739Z" fill="#605D82"/>
<g opacity="0.1">
<path opacity="0.1" d="M90.6459 163.262C88.4256 172.36 90.8792 205.84 90.8792 205.84C90.8792 205.84 94.3617 227.806 94.3617 232.917C94.3617 236.804 96.2321 242.403 97.1194 244.835L97.8443 244.706C97.8443 244.706 94.6283 236.671 94.6283 231.58C94.6283 226.49 91.1458 204.503 91.1458 204.503C91.1458 204.503 88.9046 173.906 90.6459 163.262Z" fill="black"/>
<path opacity="0.1" d="M73.4665 201.816L73.5331 201.954C73.554 201.816 73.5748 201.67 73.5873 201.537C73.5518 201.632 73.5115 201.725 73.4665 201.816Z" fill="black"/>
<path opacity="0.1" d="M91.0792 161.313C91.2009 160.851 91.4055 160.415 91.6832 160.026L64.0895 155.739C64.0895 155.739 64.252 156.26 64.5311 157.189L91.0792 161.313Z" fill="black"/>
</g>
<path d="M128.383 141.272C128.383 141.272 132.403 156.268 120.347 158.418C120.152 158.367 119.969 158.276 119.81 158.151C119.81 158.151 112.845 144.488 118.202 139.131L128.383 141.272Z" fill="#A1616A"/>
<path d="M79.0902 41.6238C79.0902 41.6238 79.8942 52.8712 71.0545 58.2325C62.2149 63.5937 89.8003 78.3237 89.8003 78.3237L104.268 55.2831C104.268 55.2831 98.1108 56.0788 94.3617 45.3729L79.0902 41.6238Z" fill="#A1616A"/>
<path opacity="0.1" d="M73.1957 59.0282C73.1957 59.0282 86.8593 87.4259 99.1814 60.6362L118.202 154.931C118.202 154.931 88.7297 164.042 88.4672 168.328C88.2048 172.615 58.7365 157.347 58.7365 157.347C58.7365 157.347 65.1642 145.558 63.5604 138.327C61.9566 131.095 73.1957 59.0282 73.1957 59.0282Z" fill="black"/>
<path d="M73.1957 58.4907C73.1957 58.4907 86.8593 86.8884 99.1814 60.0987L118.202 154.398C118.202 154.398 88.7297 163.508 88.4672 167.795C88.2048 172.081 58.7365 156.81 58.7365 156.81C58.7365 156.81 65.1642 145.021 63.5604 137.789C61.9566 130.558 73.1957 58.4907 73.1957 58.4907Z" fill="#E1E7EF"/>
<path d="M86.5927 252.184C86.5927 252.184 83.1101 244.415 91.1458 244.415C99.1814 244.415 97.8443 251.38 97.8443 251.38L86.5927 252.184Z" fill="#5A5773"/>
<path d="M104.809 232.089C104.809 232.089 101.593 223.782 109.633 223.516C117.673 223.249 113.653 231.014 113.653 231.014L104.809 232.089Z" fill="#5A5773"/>
<path opacity="0.1" d="M97.9776 52.4546C97.9776 52.4546 106.147 56.6203 109.096 56.0704C112.045 55.5206 119.81 60.6235 119.277 70.8045L124.117 85.9927C126.054 92.0828 127.037 98.4355 127.033 104.826C127.033 104.826 133.998 124.113 130.249 132.686L129.445 144.475C129.445 144.475 123.284 140.993 116.852 142.063L118.473 132.436L111.225 105.105L99.1689 75.9034L97.9776 52.4546Z" fill="black"/>
<path d="M97.9776 51.9255C97.9776 51.9255 106.147 56.0913 109.096 55.5414C112.045 54.9915 119.81 60.0945 119.277 70.2755L124.117 85.4637C126.054 91.5537 127.037 97.9064 127.033 104.297C127.033 104.297 133.998 123.584 130.249 132.157L129.445 143.946C129.445 143.946 123.284 140.464 116.852 141.534L118.46 131.891L111.225 104.568L99.1814 75.366L97.9776 51.9255Z" fill="#67647E"/>
<path opacity="0.1" d="M111.508 84.4765V114.749L115.528 129.216C115.528 129.216 118.206 145.021 117.402 149.845C116.598 154.669 103.739 155.739 100.256 151.719C96.7737 147.699 98.6482 113.395 98.6482 113.395L97.9776 63.1772L98.5149 61.5692L111.508 84.4765Z" fill="black"/>
<path d="M112.058 83.1393V113.412L116.078 127.879C116.078 127.879 118.756 143.684 117.952 148.508C117.148 153.332 104.289 154.402 100.806 150.382C97.3235 146.362 99.1981 112.058 99.1981 112.058L98.5274 61.8275L112.058 83.1393Z" fill="#67647E"/>
<path opacity="0.1" d="M58.0617 108.321L66.6347 134.982L62.6148 146.367C62.6148 146.367 81.6355 166.458 93.691 156.814C93.691 156.814 95.0324 115.824 92.3497 106.18C89.6669 96.5363 76.8116 64.1062 76.8116 64.1062L74.1497 55.5457L59.9529 63.5813L58.0617 108.321Z" fill="black"/>
<path d="M57.391 106.98V133.224C57.391 133.224 57.9284 138.851 56.0497 142.601C54.1709 146.35 61.9442 145.013 61.9442 145.013C61.9442 145.013 80.9648 165.104 93.0204 155.46C93.0204 155.46 94.3617 114.47 91.679 104.826C88.9963 95.1823 76.1409 62.7522 76.1409 62.7522L73.4624 54.1792L59.2656 62.2149L57.391 106.98Z" fill="#67647E"/>
<path opacity="0.1" d="M78.1529 49.5178C78.1529 49.5178 69.984 55.5456 60.607 54.2042C51.2299 52.8629 45.8728 94.3909 45.8728 94.3909C45.8728 94.3909 42.3903 115.823 53.6419 113.949L78.557 105.642C78.557 105.642 73.1999 100.015 74.0039 92.7829L61.9442 97.6026L62.4857 74.5662L78.1529 49.5178Z" fill="black"/>
<path opacity="0.1" d="M46.406 93.8536C46.406 93.8536 42.9235 115.286 54.1751 113.412L79.0902 105.105C79.0902 105.105 73.7331 99.4814 74.5371 92.2456L62.4857 97.0695L46.406 93.8536Z" fill="black"/>
<path d="M73.9456 95.0698C73.9456 95.0698 82.3061 84.0765 88.4631 89.3545C94.62 94.6324 76.1534 104.305 76.1534 104.305L73.9456 95.0698Z" fill="#A1616A"/>
<path d="M78.1529 48.9805C78.1529 48.9805 69.984 55.0083 60.607 53.6669C51.2299 52.3255 45.8728 93.8535 45.8728 93.8535C45.8728 93.8535 42.3903 115.286 53.6419 113.412L78.557 105.105C78.557 105.105 73.1999 99.4772 74.0039 92.2455L61.9442 97.0694L62.4857 74.0289L76.1492 62.7815L78.1529 48.9805Z" fill="#67647E"/>
<path opacity="0.1" d="M94.6283 45.8978L79.3568 42.1487C79.3568 42.1487 80.1525 43.0485 79.2235 46.5685C81.6813 49.3887 84.7014 53.1337 88.7338 53.1337C91.6195 53.1391 94.4291 52.2079 96.7403 50.4801C95.8778 49.0308 95.17 47.495 94.6283 45.8978Z" fill="black"/>
<path d="M88.4672 52.6005C95.8661 52.6005 101.864 46.6025 101.864 39.2036C101.864 31.8047 95.8661 25.8066 88.4672 25.8066C81.0683 25.8066 75.0703 31.8047 75.0703 39.2036C75.0703 46.6025 81.0683 52.6005 88.4672 52.6005Z" fill="#A1616A"/>
<path opacity="0.1" d="M93.5453 33.3882C96.6529 32.8592 100.069 31.4803 101.11 28.506C101.777 26.6023 101.268 24.4361 100.181 22.7407C99.094 21.0452 97.4943 19.7414 95.8447 18.575C93.1662 16.6921 90.2127 15.0758 86.9884 14.5092C86.4325 14.3763 85.8531 14.3763 85.2971 14.5092C84.8137 14.7071 84.354 14.9586 83.9266 15.2591C81.723 16.5296 78.9819 15.9797 76.4283 15.8464C73.8748 15.7131 70.813 16.4338 70.009 18.8457C69.759 19.5914 69.7757 20.3954 69.5924 21.1619C69.1758 23.0364 67.7637 24.4944 66.6764 26.0566C65.5892 27.6187 64.7519 29.7307 65.6683 31.4137C65.9807 31.9844 66.5015 32.5093 66.5015 33.1591C66.4211 33.621 66.281 34.0705 66.0849 34.4963C65.7058 35.8793 66.8097 37.2748 68.0844 37.933C69.3591 38.5912 70.8255 38.7953 72.1252 39.4077C73.3417 40.008 74.3601 40.945 75.0595 42.1074C75.7588 43.2698 76.1096 44.6086 76.0701 45.9645C77.2531 46.102 78.632 46.1728 79.4318 45.2897C79.7901 44.8939 79.965 44.3649 80.29 43.9442C80.7065 43.3943 81.3564 43.0694 81.8896 42.6278C84.6931 40.3241 82.7019 37.1415 84.289 34.6588C85.1222 33.3799 86.4469 33.7715 87.7882 33.7923C89.7156 33.8374 91.643 33.7021 93.5453 33.3882Z" fill="black"/>
<path d="M93.2786 33.1216C96.3863 32.5926 99.8021 31.2137 100.844 28.2394C101.51 26.3357 101.002 24.1695 99.9146 22.4741C98.8274 20.7786 97.2277 19.4748 95.5781 18.3084C92.8996 16.4255 89.9461 14.8092 86.7218 14.2426C86.1659 14.1097 85.5865 14.1097 85.0305 14.2426C84.5471 14.4405 84.0874 14.692 83.66 14.9925C81.4563 16.263 78.7153 15.7131 76.1617 15.5798C73.6081 15.4465 70.5464 16.1672 69.7424 18.5791C69.4924 19.3248 69.5091 20.1288 69.3258 20.8953C68.9092 22.7698 67.4971 24.2278 66.4098 25.79C65.3225 27.3521 64.4852 29.4641 65.4017 31.1471C65.7141 31.7178 66.2348 32.2427 66.2348 32.8925C66.1544 33.3544 66.0144 33.8039 65.8183 34.2297C65.4392 35.6127 66.5431 37.0082 67.8178 37.6664C69.0925 38.3246 70.5588 38.5287 71.8585 39.1411C73.08 39.7408 74.1028 40.6797 74.8047 41.8454C75.5065 43.0112 75.8576 44.3545 75.816 45.7146C76.999 45.8521 78.3779 45.9229 79.1777 45.0397C79.536 44.644 79.7109 44.115 80.0358 43.6942C80.4524 43.1443 81.1023 42.8194 81.6355 42.3778C84.439 40.0742 82.4478 36.8916 84.0349 34.4088C84.8681 33.13 86.1928 33.5215 87.5341 33.5424C89.4579 33.5812 91.3811 33.4403 93.2786 33.1216Z" fill="#4A4347"/>
<path opacity="0.1" d="M109.496 78.1821C109.496 78.1821 112.441 93.4536 111.104 99.3481C110.287 102.777 110.408 106.363 111.454 109.729" fill="black"/>
<path opacity="0.1" d="M61.8858 84.6097C61.8858 84.6097 60.6028 94.7907 62.7398 96.9319L61.8858 84.6097Z" fill="black"/>
<path d="M136.69 210.077C136.855 210.077 137.014 210.011 137.131 209.894C137.249 209.777 137.314 209.618 137.314 209.452C137.314 209.286 137.249 209.127 137.131 209.01C137.014 208.893 136.855 208.827 136.69 208.827C136.524 208.827 136.365 208.893 136.248 209.01C136.13 209.127 136.065 209.286 136.065 209.452C136.065 209.618 136.13 209.777 136.248 209.894C136.365 210.011 136.524 210.077 136.69 210.077Z" fill="black"/>
<g opacity="0.5">
<path opacity="0.5" d="M329.091 137.281V136.935L215.434 49.5387C215.362 49.4856 215.275 49.4569 215.186 49.4569C215.097 49.4569 215.01 49.4856 214.938 49.5387L101.277 136.935V272.404H101.493V272.621H329.312V137.152L329.091 137.281Z" fill="url(#paint1_linear)"/>
</g>
<path d="M325.167 268.626H105.218V137.823L215.192 53.2587L325.167 137.823V268.626Z" fill="white"/>
<path d="M317.252 260.874H113.132V139.485L215.192 61.0068L317.252 139.485V260.874Z" fill="#E0E0E0"/>
<path d="M249.817 59.1931L125.304 91.8352L166.819 250.196L291.332 217.554L249.817 59.1931Z" fill="#ED6767"/>
<path d="M280.177 83.2517H151.457V246.964H280.177V83.2517Z" fill="#F5F5F5"/>
<path opacity="0.05" d="M106.259 138.031L216.234 203.432L106.259 268.834V138.031Z" fill="black"/>
<path d="M105.426 138.031L215.401 203.432L105.426 268.834V138.031Z" fill="white"/>
<path opacity="0.05" d="M324.542 138.031L214.568 203.432L324.542 268.834V138.031Z" fill="black"/>
<path d="M325.375 138.031L215.401 203.432L325.375 268.834V138.031Z" fill="white"/>
<path opacity="0.05" d="M105.426 266.751L215.401 180.938L325.375 266.751H105.426Z" fill="black"/>
<path d="M105.426 268.834L215.401 183.021L325.375 268.834H105.426Z" fill="white"/>
<path d="M127.775 278.769C127.775 278.769 122.251 260.024 128.812 246.219C131.6 240.448 132.44 233.929 131.207 227.639C130.599 224.659 129.719 221.741 128.579 218.921" stroke="#535461" stroke-width="2" stroke-miterlimit="10"/>
<path d="M132.657 210.198C132.657 212.497 128.491 219.158 128.491 219.158C128.491 219.158 124.326 212.493 124.326 210.198C124.326 209.093 124.765 208.033 125.546 207.252C126.327 206.471 127.387 206.032 128.491 206.032C129.596 206.032 130.656 206.471 131.437 207.252C132.218 208.033 132.657 209.093 132.657 210.198Z" fill="#ED6767"/>
<path d="M139.551 222.928C138.302 224.857 131.187 228.189 131.187 228.189C131.187 228.189 131.316 220.333 132.565 218.404C133.188 217.532 134.124 216.933 135.177 216.733C136.23 216.532 137.32 216.746 138.22 217.329C139.12 217.911 139.76 218.818 140.008 219.861C140.256 220.904 140.092 222.003 139.551 222.928Z" fill="#ED6767"/>
<path d="M139.235 244.677C137.181 245.71 129.358 244.998 129.358 244.998C129.358 244.998 133.436 238.283 135.486 237.25C135.976 236.975 136.517 236.803 137.076 236.743C137.635 236.683 138.2 236.737 138.738 236.902C139.275 237.066 139.774 237.337 140.204 237.699C140.634 238.062 140.986 238.507 141.239 239.009C141.492 239.511 141.641 240.059 141.677 240.62C141.713 241.18 141.635 241.743 141.447 242.273C141.26 242.803 140.968 243.289 140.587 243.703C140.207 244.117 139.747 244.45 139.235 244.681V244.677Z" fill="#ED6767"/>
<path d="M135.302 261.086C133.453 262.452 125.621 263.069 125.621 263.069C125.621 263.069 128.504 255.762 130.353 254.396C131.243 253.802 132.328 253.573 133.382 253.757C134.435 253.941 135.378 254.524 136.014 255.384C136.651 256.244 136.932 257.316 136.799 258.377C136.666 259.439 136.131 260.409 135.302 261.086Z" fill="#ED6767"/>
<path d="M122.434 228.631C124.101 230.23 131.761 231.893 131.761 231.893C131.761 231.893 129.883 224.265 128.233 222.666C127.431 221.956 126.386 221.583 125.316 221.624C124.246 221.665 123.232 222.116 122.486 222.884C121.74 223.652 121.318 224.678 121.309 225.749C121.299 226.82 121.702 227.854 122.434 228.635V228.631Z" fill="#ED6767"/>
<path d="M118.077 247.881C120.131 248.914 127.954 248.201 127.954 248.201C127.954 248.201 123.876 241.486 121.826 240.453C120.848 240.011 119.736 239.964 118.723 240.322C117.711 240.679 116.876 241.414 116.392 242.373C115.908 243.332 115.813 244.441 116.127 245.468C116.441 246.494 117.14 247.361 118.077 247.885V247.881Z" fill="#ED6767"/>
<path d="M116.411 267.168C118.26 268.534 126.092 269.151 126.092 269.151C126.092 269.151 123.209 261.844 121.36 260.478C120.923 260.121 120.418 259.856 119.876 259.7C119.334 259.544 118.766 259.499 118.207 259.569C117.647 259.639 117.107 259.822 116.62 260.107C116.133 260.391 115.709 260.772 115.374 261.225C115.038 261.679 114.798 262.196 114.669 262.745C114.539 263.294 114.522 263.863 114.619 264.419C114.716 264.975 114.925 265.505 115.233 265.977C115.541 266.45 115.942 266.855 116.411 267.168Z" fill="#ED6767"/>
<path opacity="0.5" d="M210.61 90.75H158.955V94.9157H210.61V90.75Z" fill="#ED6767"/>
<path opacity="0.5" d="M270.596 107.413H158.955V111.579H270.596V107.413Z" fill="#ED6767"/>
<path opacity="0.5" d="M270.596 118.244H158.955V122.409H270.596V118.244Z" fill="#ED6767"/>
<path opacity="0.4" d="M270.596 129.075H158.955V133.24H270.596V129.075Z" fill="#ED6767"/>
<path opacity="0.4" d="M270.596 139.905H158.955V144.071H270.596V139.905Z" fill="#ED6767"/>
<path opacity="0.3" d="M222.691 150.736H158.955V154.902H222.691V150.736Z" fill="#ED6767"/>
<path opacity="0.3" d="M246.019 161.567H158.955V165.733H246.019V161.567Z" fill="#ED6767"/>
</g>
<defs>
<linearGradient id="paint0_linear" x1="43.69" y1="147.541" x2="132.845" y2="147.541" gradientUnits="userSpaceOnUse">
<stop stop-color="#808080" stop-opacity="0.25"/>
<stop offset="0.54" stop-color="#808080" stop-opacity="0.12"/>
<stop offset="1" stop-color="#808080" stop-opacity="0.1"/>
</linearGradient>
<linearGradient id="paint1_linear" x1="145321" y1="165314" x2="145321" y2="45753.4" gradientUnits="userSpaceOnUse">
<stop stop-color="#808080" stop-opacity="0.25"/>
<stop offset="0.54" stop-color="#808080" stop-opacity="0.12"/>
<stop offset="1" stop-color="#808080" stop-opacity="0.1"/>
</linearGradient>
<clipPath id="clip0">
<rect width="400" height="303.201" fill="white"/>
</clipPath>
</defs>
</svg>
